<svg version="1.1" id="Layer_1" xmlns="http://www.w3.org/2000/svg" xmlns:xlink="http://www.w3.org/1999/xlink" x="0px" y="0px"
	 width="100%" viewBox="0 0 1425 723" enable-background="new 0 0 1425 723" xml:space="preserve">
<path fill="#FEFEFE" opacity="1.000000" stroke="none" 
	d="
M382.000000,1.000000 
	C729.966370,1.000000 1077.932739,1.000000 1425.949585,1.000000 
	C1425.949585,241.943085 1425.949585,482.886200 1425.949585,723.914673 
	C951.102844,723.914673 476.205627,723.914673 1.154204,723.914673 
	C1.154204,483.000061 1.154204,242.000046 1.154204,1.000000 
	C114.110497,1.000000 227.099304,1.000000 340.344482,1.366690 
	C337.132874,2.137426 333.664368,2.537082 330.196960,2.946210 
	C296.555908,6.915588 264.293518,15.995335 233.837189,30.697456 
	C193.276001,50.277481 158.639496,77.892723 128.674026,111.380875 
	C86.080917,158.981140 57.224304,214.038025 39.915138,275.376801 
	C23.618448,333.127625 15.916437,391.651581 22.952900,451.637177 
	C27.515038,490.529205 37.977371,527.640686 57.134354,561.916443 
	C85.846725,613.288696 126.453751,651.642273 182.546768,671.421021 
	C234.460022,689.726135 287.698486,689.794739 341.225952,679.377441 
	C404.979126,666.969971 456.883240,633.740845 499.914490,586.386536 
	C520.264648,563.991882 538.189087,539.393250 557.222107,515.800842 
	C557.942505,514.907776 558.762085,514.094727 559.908081,512.834656 
	C549.697021,568.393066 539.623230,623.204468 529.439331,678.615112 
	C584.004211,678.615112 637.286438,678.615112 690.749573,678.615112 
	C708.248535,593.806030 725.739685,509.034912 743.205872,424.384766 
	C810.701782,424.384766 877.740540,424.384766 944.985779,424.384766 
	C929.326355,510.936768 913.731934,597.130005 898.161865,683.188232 
	C1025.305664,683.188232 1152.054199,683.188232 1278.861206,683.188232 
	C1290.072021,628.728760 1301.159180,574.870361 1312.368286,520.420044 
	C1239.505859,520.420044 1167.314941,520.420044 1094.851685,520.420044 
	C1094.959961,518.948059 1094.939453,517.955078 1095.117065,516.998840 
	C1100.612915,487.402802 1106.355469,457.849365 1111.444214,428.183685 
	C1112.432251,422.423126 1114.628296,421.576233 1119.738647,421.587799 
	C1189.068237,421.744812 1258.398193,421.693298 1327.728149,421.693298 
	C1329.697754,421.693298 1331.667480,421.693298 1333.918335,421.693298 
	C1342.080811,368.088501 1350.180420,314.895935 1358.340820,261.304382 
	C1286.104126,260.683960 1214.696411,260.070679 1142.644287,259.451874 
	C1148.147217,230.101776 1153.516968,201.461807 1158.979370,172.327469 
	C1170.414917,172.327469 1181.230225,172.380325 1192.045044,172.318726 
	C1252.368896,171.975204 1312.692749,171.585251 1373.016968,171.295914 
	C1376.116089,171.281036 1377.551025,170.739120 1378.256226,167.202103 
	C1387.002319,123.336845 1395.990601,79.519890 1404.896484,35.686466 
	C1406.368164,28.443117 1407.744995,21.180464 1409.247437,13.509491 
	C1406.341675,13.509491 1404.188354,13.509492 1402.035034,13.509492 
	C1154.713867,13.509492 907.392761,13.509492 660.071594,13.509507 
	C658.904968,13.509507 657.716492,13.654433 656.576050,13.481796 
	C653.572876,13.027202 652.569885,14.478492 652.058716,17.252796 
	C641.390930,75.150795 630.653442,133.035965 619.913696,190.920700 
	C617.909851,201.720978 615.837463,212.508545 613.796753,223.301971 
	C604.284973,175.275162 585.492065,131.666229 554.593933,93.736946 
	C514.521912,44.546230 463.482300,13.807254 400.415466,3.893872 
	C394.277008,2.928982 388.138489,1.964612 382.000000,1.000000 
z"/>
<path fill="#048E5C" opacity="1.000000" stroke="none" 
	d="
M381.531342,1.000000 
	C388.138489,1.964612 394.277008,2.928982 400.415466,3.893872 
	C463.482300,13.807254 514.521912,44.546230 554.593933,93.736946 
	C585.492065,131.666229 604.284973,175.275162 613.796753,223.301971 
	C615.837463,212.508545 617.909851,201.720978 619.913696,190.920700 
	C630.653442,133.035965 641.390930,75.150795 652.058716,17.252796 
	C652.569885,14.478492 653.572876,13.027202 656.576050,13.481796 
	C657.716492,13.654433 658.904968,13.509507 660.071594,13.509507 
	C907.392761,13.509492 1154.713867,13.509492 1402.035034,13.509492 
	C1404.188354,13.509492 1406.341675,13.509491 1409.247437,13.509491 
	C1407.744995,21.180464 1406.368164,28.443117 1404.896484,35.686466 
	C1395.990601,79.519890 1387.002319,123.336845 1378.256226,167.202103 
	C1377.551025,170.739120 1376.116089,171.281036 1373.016968,171.295914 
	C1312.692749,171.585251 1252.368896,171.975204 1192.045044,172.318726 
	C1181.230225,172.380325 1170.414917,172.327469 1158.979370,172.327469 
	C1153.516968,201.461807 1148.147217,230.101776 1142.644287,259.451874 
	C1214.696411,260.070679 1286.104126,260.683960 1358.340820,261.304382 
	C1350.180420,314.895935 1342.080811,368.088501 1333.918335,421.693298 
	C1331.667480,421.693298 1329.697754,421.693298 1327.728149,421.693298 
	C1258.398193,421.693298 1189.068237,421.744812 1119.738647,421.587799 
	C1114.628296,421.576233 1112.432251,422.423126 1111.444214,428.183685 
	C1106.355469,457.849365 1100.612915,487.402802 1095.117065,516.998840 
	C1094.939453,517.955078 1094.959961,518.948059 1094.851685,520.420044 
	C1167.314941,520.420044 1239.505859,520.420044 1312.368286,520.420044 
	C1301.159180,574.870361 1290.072021,628.728760 1278.861206,683.188232 
	C1152.054199,683.188232 1025.305664,683.188232 898.161865,683.188232 
	C913.731934,597.130005 929.326355,510.936768 944.985779,424.384766 
	C877.740540,424.384766 810.701782,424.384766 743.205872,424.384766 
	C725.739685,509.034912 708.248535,593.806030 690.749573,678.615112 
	C637.286438,678.615112 584.004211,678.615112 529.439331,678.615112 
	C539.623230,623.204468 549.697021,568.393066 559.908081,512.834656 
	C558.762085,514.094727 557.942505,514.907776 557.222107,515.800842 
	C538.189087,539.393250 520.264648,563.991882 499.914490,586.386536 
	C456.883240,633.740845 404.979126,666.969971 341.225952,679.377441 
	C287.698486,689.794739 234.460022,689.726135 182.546768,671.421021 
	C126.453751,651.642273 85.846725,613.288696 57.134354,561.916443 
	C37.977371,527.640686 27.515038,490.529205 22.952900,451.637177 
	C15.916437,391.651581 23.618448,333.127625 39.915138,275.376801 
	C57.224304,214.038025 86.080917,158.981140 128.674026,111.380875 
	C158.639496,77.892723 193.276001,50.277481 233.837189,30.697456 
	C264.293518,15.995335 296.555908,6.915588 330.196960,2.946210 
	C333.664368,2.537082 337.132874,2.137426 340.800446,1.366690 
	C354.354218,1.000000 367.708466,1.000000 381.531342,1.000000 
M165.181335,392.309937 
	C165.746765,411.849670 167.278946,431.394806 174.205948,449.765900 
	C190.705612,493.524536 219.410965,523.767883 268.297211,528.672852 
	C312.531403,533.111084 351.864838,520.726562 385.608368,491.271332 
	C404.789703,474.527679 419.648346,454.368073 432.856720,432.856812 
	C434.632874,429.964142 436.568146,428.927490 439.973267,428.937103 
	C483.297974,429.059418 526.623169,429.017731 569.948181,429.017731 
	C571.893555,429.017731 573.838867,429.017700 575.791748,429.017700 
	C584.612732,380.198242 593.324341,331.984375 602.188660,282.924927 
	C558.329712,282.924927 515.435913,282.924927 472.610321,282.924927 
	C472.335693,281.592987 472.161316,280.952454 472.075317,280.300262 
	C468.919922,256.373840 461.361481,234.081543 447.806732,213.935669 
	C431.839600,190.204330 411.841949,171.676285 383.678467,163.480591 
	C363.855469,157.712006 343.872223,158.595779 323.814819,161.961121 
	C300.767548,165.828110 278.660248,172.294235 259.945801,186.973770 
	C236.011475,205.747757 215.370590,227.783707 200.168518,254.156662 
	C175.764771,296.492859 165.567078,342.748016 165.181335,392.309937 
M980.371033,331.923309 
	C980.129089,333.400604 979.914001,334.882874 979.641541,336.354523 
	C971.073425,382.631134 962.504150,428.907562 953.925720,475.182251 
	C944.074463,528.323669 934.207764,581.462219 924.364441,634.605042 
	C922.709961,643.537292 921.140015,652.485168 919.619812,660.931946 
	C1034.541504,660.931946 1148.950317,660.931946 1263.454224,660.931946 
	C1271.221069,620.313477 1278.813354,580.608459 1286.493164,540.445679 
	C1214.084595,540.445679 1142.691528,540.445679 1070.875366,540.445679 
	C1079.765381,494.768524 1088.579956,449.478363 1097.454590,403.880463 
	C1170.960693,403.880463 1244.046997,403.880463 1317.536255,403.880463 
	C1321.083252,361.843933 1334.465454,321.532806 1335.126099,278.935425 
	C1263.136475,278.935425 1191.717773,278.935425 1120.334961,278.935425 
	C1120.261475,278.185516 1120.149414,277.840271 1120.208252,277.527039 
	C1127.688965,237.646652 1135.295776,197.789154 1142.526733,157.863602 
	C1143.400146,153.041534 1145.308838,152.242584 1149.631592,152.226273 
	C1211.283447,151.993713 1272.934814,151.587784 1334.586182,151.242767 
	C1343.871338,151.190796 1353.156982,151.235535 1362.517578,151.235535 
	C1370.255005,111.936798 1377.858398,73.318642 1385.548950,34.258263 
	C1268.575562,34.258263 1152.182983,34.258263 1035.506348,34.258263 
	C1033.973877,42.526436 1032.462769,50.673882 1030.953857,58.821735 
	C1021.444763,110.167870 1011.925964,161.512192 1002.430908,212.860870 
	C995.143555,252.270477 987.886475,291.685669 980.371033,331.923309 
M318.917603,21.212481 
	C309.017456,23.336399 298.882904,24.707224 289.254272,27.703625 
	C213.713623,51.211601 154.321671,96.916527 110.093254,161.854294 
	C60.112404,235.237946 37.641148,317.309814 36.764565,405.770142 
	C36.312916,451.348328 43.157066,495.314240 63.027729,536.691772 
	C90.868645,594.666138 134.446411,635.327881 195.645508,656.389771 
	C220.102371,664.806641 245.498856,666.151062 271.050903,666.233398 
	C293.883728,666.306946 316.687225,666.028931 339.194550,661.410583 
	C390.134308,650.958191 433.704254,626.486694 471.796722,591.657593 
	C512.832275,554.137634 541.866760,508.307648 564.074341,457.796783 
	C565.258972,455.102356 566.047668,452.233856 567.160278,449.046417 
	C564.774048,449.046417 562.955078,449.046387 561.136108,449.046387 
	C528.304321,449.046387 495.472565,449.034729 462.640778,449.056427 
	C456.153381,449.060730 448.652100,447.196167 443.464417,449.829834 
	C438.295105,452.454163 435.444183,459.648224 431.583282,464.843597 
	C430.987640,465.645142 430.434509,466.478149 429.849030,467.287415 
	C416.388062,485.894379 401.229492,502.958069 382.344635,516.184143 
	C356.612122,534.206116 327.577484,544.031677 296.606720,547.767090 
	C264.818909,551.600952 235.173798,545.069641 209.245575,525.680542 
	C171.108658,497.161743 152.742996,458.079712 150.244614,411.175812 
	C148.488358,378.204407 152.238281,345.599915 159.700668,313.535736 
	C170.744720,266.081909 195.322464,226.043289 228.923065,191.268860 
	C242.183502,177.545135 256.527557,165.172043 274.420685,157.687225 
	C296.871826,148.295776 320.272949,142.516159 344.543854,141.361877 
	C376.896179,139.823257 406.604919,147.461197 431.735321,169.151123 
	C450.875000,185.670441 465.354828,205.557785 474.775909,228.974457 
	C479.164795,239.883301 482.669556,251.147858 486.444427,261.879852 
	C524.347107,261.879852 562.096069,261.879852 600.387207,261.879852 
	C600.167603,257.699646 600.303406,254.189178 599.753235,250.789703 
	C595.919983,227.106415 590.177490,203.897247 581.915833,181.349869 
	C558.028870,116.158432 517.863281,65.674881 452.614716,37.587910 
	C434.935455,29.977673 417.033295,22.900192 397.722382,22.098148 
	C371.792572,21.021206 345.803192,21.378902 318.917603,21.212481 
M956.588135,364.063354 
	C961.368225,336.955994 966.148315,309.848633 970.988159,282.402435 
	C897.590881,281.897522 824.808838,281.396851 751.421997,280.891998 
	C759.468994,237.360062 767.432068,194.282135 775.428711,151.022522 
	C778.229004,151.022522 780.546143,151.015259 782.863342,151.023560 
	C851.356079,151.268982 919.849060,151.486160 988.341187,151.842316 
	C992.140198,151.862045 993.709290,151.065231 994.495850,146.977737 
	C999.460876,121.178802 1004.803955,95.452713 1010.004883,69.699066 
	C1012.363770,58.018635 1014.682922,46.330185 1017.097656,34.257435 
	C900.477417,33.669598 784.408569,33.084541 668.262756,32.499096 
	C629.464722,241.464066 590.769775,449.873474 551.946045,658.976562 
	C593.900024,658.976562 635.186340,658.976562 676.783569,658.976562 
	C677.113831,657.516113 677.549988,655.769836 677.901367,654.006592 
	C684.791077,619.437622 691.579529,584.848083 698.575317,550.300598 
	C707.880371,504.349335 717.410461,458.443542 726.625305,412.474396 
	C727.411560,408.551788 727.935364,406.481750 732.747498,406.455597 
	C776.738708,406.216766 820.727905,405.653259 864.718384,405.246643 
	C891.380981,405.000183 918.044617,404.860321 944.707825,404.682220 
	C947.216248,404.665466 949.514221,405.051910 950.096375,401.287018 
	C951.976990,389.125061 954.236877,377.021759 956.588135,364.063354 
M862.500000,259.835327 
	C900.238953,259.835327 937.977905,259.835327 975.658203,259.835327 
	C981.168823,230.103409 986.583435,200.889633 992.007202,171.626495 
	C924.537903,171.626495 857.501465,171.626495 790.382019,171.626495 
	C785.119324,200.981400 779.921448,229.974518 774.568115,259.835236 
	C804.241943,259.835236 832.870972,259.835236 862.500000,259.835327 
z"/>
<path fill="#FFFFFF" opacity="1.000000" stroke="none" 
	d="
M165.177155,391.834473 
	C165.567078,342.748016 175.764771,296.492859 200.168518,254.156662 
	C215.370590,227.783707 236.011475,205.747757 259.945801,186.973770 
	C278.660248,172.294235 300.767548,165.828110 323.814819,161.961121 
	C343.872223,158.595779 363.855469,157.712006 383.678467,163.480591 
	C411.841949,171.676285 431.839600,190.204330 447.806732,213.935669 
	C461.361481,234.081543 468.919922,256.373840 472.075317,280.300262 
	C472.161316,280.952454 472.335693,281.592987 472.610321,282.924927 
	C515.435913,282.924927 558.329712,282.924927 602.188660,282.924927 
	C593.324341,331.984375 584.612732,380.198242 575.791748,429.017700 
	C573.838867,429.017700 571.893555,429.017731 569.948181,429.017731 
	C526.623169,429.017731 483.297974,429.059418 439.973267,428.937103 
	C436.568146,428.927490 434.632874,429.964142 432.856720,432.856812 
	C419.648346,454.368073 404.789703,474.527679 385.608368,491.271332 
	C351.864838,520.726562 312.531403,533.111084 268.297211,528.672852 
	C219.410965,523.767883 190.705612,493.524536 174.205948,449.765900 
	C167.278946,431.394806 165.746765,411.849670 165.177155,391.834473 
z"/>
<path fill="#FDFDFD" opacity="1.000000" stroke="none" 
	d="
M980.493469,331.510834 
	C987.886475,291.685669 995.143555,252.270477 1002.430908,212.860870 
	C1011.925964,161.512192 1021.444763,110.167870 1030.953857,58.821735 
	C1032.462769,50.673882 1033.973877,42.526436 1035.506348,34.258263 
	C1152.182983,34.258263 1268.575562,34.258263 1385.548950,34.258263 
	C1377.858398,73.318642 1370.255005,111.936798 1362.517578,151.235535 
	C1353.156982,151.235535 1343.871338,151.190796 1334.586182,151.242767 
	C1272.934814,151.587784 1211.283447,151.993713 1149.631592,152.226273 
	C1145.308838,152.242584 1143.400146,153.041534 1142.526733,157.863602 
	C1135.295776,197.789154 1127.688965,237.646652 1120.208252,277.527039 
	C1120.149414,277.840271 1120.261475,278.185516 1120.334961,278.935425 
	C1191.717773,278.935425 1263.136475,278.935425 1335.126099,278.935425 
	C1334.465454,321.532806 1321.083252,361.843933 1317.536255,403.880463 
	C1244.046997,403.880463 1170.960693,403.880463 1097.454590,403.880463 
	C1088.579956,449.478363 1079.765381,494.768524 1070.875366,540.445679 
	C1142.691528,540.445679 1214.084595,540.445679 1286.493164,540.445679 
	C1278.813354,580.608459 1271.221069,620.313477 1263.454224,660.931946 
	C1148.950317,660.931946 1034.541504,660.931946 919.619812,660.931946 
	C921.140015,652.485168 922.709961,643.537292 924.364441,634.605042 
	C934.207764,581.462219 944.074463,528.323669 953.925720,475.182251 
	C962.504150,428.907562 971.073425,382.631134 979.641541,336.354523 
	C979.914001,334.882874 980.129089,333.400604 980.493469,331.510834 
M1128.500000,639.230286 
	C1167.799805,639.230286 1207.099609,639.230286 1246.917725,639.230286 
	C1252.240601,612.567261 1257.498779,586.228333 1262.873657,559.304688 
	C1187.928955,559.304688 1113.882446,559.304688 1039.266724,559.304688 
	C1051.645874,500.263153 1063.914795,441.747253 1076.213867,383.087463 
	C1077.412476,383.003479 1078.388428,382.882568 1079.365479,382.874359 
	C1102.526611,382.680237 1125.687500,382.460480 1148.848999,382.321960 
	C1196.841675,382.034943 1244.834473,381.766479 1292.827637,381.589783 
	C1296.005615,381.578094 1297.502075,380.930847 1298.034302,377.398315 
	C1300.413940,361.607147 1303.159302,345.871429 1305.730713,330.108826 
	C1307.191162,321.156403 1308.570801,312.190796 1310.202148,301.868835 
	C1237.116943,301.868835 1164.738281,301.868835 1091.834961,301.868835 
	C1103.582153,245.396194 1115.049805,190.267639 1126.551025,134.977707 
	C1128.536255,134.977707 1130.023071,134.984726 1131.510010,134.976685 
	C1197.332886,134.620575 1263.155884,134.268311 1328.978760,133.895950 
	C1334.135254,133.866776 1340.906006,135.638626 1344.005981,133.061050 
	C1347.293823,130.327377 1347.257568,123.436287 1348.390381,118.298500 
	C1352.932739,97.700241 1357.365356,77.077789 1361.927002,56.056828 
	C1359.885132,56.056828 1358.234375,56.069530 1356.583984,56.054958 
	C1322.925049,55.757755 1289.266479,55.423473 1255.607300,55.164913 
	C1188.786255,54.651604 1121.964722,54.191635 1055.144043,53.649315 
	C1052.311890,53.626335 1050.618530,54.009960 1050.023193,57.357983 
	C1047.170044,73.403259 1044.063232,89.403587 1041.022705,105.415329 
	C1030.876587,158.843124 1020.723694,212.269608 1010.567322,265.695435 
	C1000.069275,320.918640 989.555237,376.138763 979.064331,431.363312 
	C968.232117,488.384338 957.419983,545.409180 946.597473,602.432068 
	C944.308472,614.492493 942.012817,626.551697 939.602539,639.230347 
	C1002.597168,639.230347 1065.048584,639.230347 1128.500000,639.230286 
z"/>
<path fill="#FCFDFD" opacity="1.000000" stroke="none" 
	d="
M319.378479,21.166603 
	C345.803192,21.378902 371.792572,21.021206 397.722382,22.098148 
	C417.033295,22.900192 434.935455,29.977673 452.614716,37.587910 
	C517.863281,65.674881 558.028870,116.158432 581.915833,181.349869 
	C590.177490,203.897247 595.919983,227.106415 599.753235,250.789703 
	C600.303406,254.189178 600.167603,257.699646 600.387207,261.879852 
	C562.096069,261.879852 524.347107,261.879852 486.444427,261.879852 
	C482.669556,251.147858 479.164795,239.883301 474.775909,228.974457 
	C465.354828,205.557785 450.875000,185.670441 431.735321,169.151123 
	C406.604919,147.461197 376.896179,139.823257 344.543854,141.361877 
	C320.272949,142.516159 296.871826,148.295776 274.420685,157.687225 
	C256.527557,165.172043 242.183502,177.545135 228.923065,191.268860 
	C195.322464,226.043289 170.744720,266.081909 159.700668,313.535736 
	C152.238281,345.599915 148.488358,378.204407 150.244614,411.175812 
	C152.742996,458.079712 171.108658,497.161743 209.245575,525.680542 
	C235.173798,545.069641 264.818909,551.600952 296.606720,547.767090 
	C327.577484,544.031677 356.612122,534.206116 382.344635,516.184143 
	C401.229492,502.958069 416.388062,485.894379 429.849030,467.287415 
	C430.434509,466.478149 430.987640,465.645142 431.583282,464.843597 
	C435.444183,459.648224 438.295105,452.454163 443.464417,449.829834 
	C448.652100,447.196167 456.153381,449.060730 462.640778,449.056427 
	C495.472565,449.034729 528.304321,449.046387 561.136108,449.046387 
	C562.955078,449.046387 564.774048,449.046417 567.160278,449.046417 
	C566.047668,452.233856 565.258972,455.102356 564.074341,457.796783 
	C541.866760,508.307648 512.832275,554.137634 471.796722,591.657593 
	C433.704254,626.486694 390.134308,650.958191 339.194550,661.410583 
	C316.687225,666.028931 293.883728,666.306946 271.050903,666.233398 
	C245.498856,666.151062 220.102371,664.806641 195.645508,656.389771 
	C134.446411,635.327881 90.868645,594.666138 63.027729,536.691772 
	C43.157066,495.314240 36.312916,451.348328 36.764565,405.770142 
	C37.641148,317.309814 60.112404,235.237946 110.093254,161.854294 
	C154.321671,96.916527 213.713623,51.211601 289.254272,27.703625 
	C298.882904,24.707224 309.017456,23.336399 319.378479,21.166603 
M242.400696,64.900261 
	C235.640427,68.815659 228.719406,72.479927 222.146011,76.687286 
	C180.139679,103.573761 147.558929,139.775635 120.092926,180.881699 
	C90.393448,225.330429 71.607796,274.185577 61.766148,326.645111 
	C54.070229,367.667175 50.894817,408.820404 56.899315,450.349579 
	C65.352760,508.816559 89.540031,558.806152 133.625290,599.331726 
	C163.894928,627.157227 199.555756,641.480408 239.164963,646.773193 
	C257.022736,649.159302 275.415192,648.203186 293.541473,647.772095 
	C323.537720,647.058655 352.748993,642.113342 380.346191,629.487427 
	C451.542236,596.914673 502.111206,543.817139 535.772278,473.811707 
	C536.023499,473.289215 535.921387,472.596741 536.024902,471.587585 
	C533.950134,471.587585 532.135254,471.584961 530.320374,471.588013 
	C510.823883,471.620911 491.327301,471.630646 471.830933,471.700775 
	C464.677216,471.726501 456.623169,469.886353 450.628052,472.573975 
	C444.823273,475.176270 441.057220,482.436157 436.533966,487.767639 
	C419.103302,508.312775 400.324615,527.430542 377.163055,541.566833 
	C337.096954,566.020569 293.903900,574.963501 247.876862,564.325195 
	C177.777069,548.122803 142.985870,485.583893 134.995117,438.761047 
	C129.679581,407.613831 130.549500,376.392181 134.842148,345.205292 
	C142.636887,288.574951 164.606659,238.159561 201.472122,194.399414 
	C218.290985,174.435028 236.955292,156.450562 259.357544,142.679092 
	C291.542725,122.893715 326.949524,117.732346 363.910187,119.471695 
	C388.750977,120.640701 411.717041,127.328583 431.967957,142.223785 
	C464.588898,166.217499 487.076874,197.316269 497.964661,236.491714 
	C498.965363,240.092285 500.473724,241.445602 504.393250,241.411911 
	C527.888062,241.209839 551.385437,241.315750 574.881958,241.301987 
	C576.345276,241.301117 577.808472,241.160431 579.491089,241.073425 
	C579.223022,239.297699 579.083130,237.825562 578.771912,236.390594 
	C573.720703,213.099869 566.479675,190.523010 557.129578,168.586884 
	C544.481445,138.913239 527.359314,112.712601 502.106232,91.922501 
	C445.329315,45.179836 380.065125,32.631927 308.928192,42.464920 
	C285.573669,45.693123 263.961578,54.057693 242.400696,64.900261 
z"/>
<path fill="#FDFDFD" opacity="1.000000" stroke="none" 
	d="
M956.469360,364.479614 
	C954.236877,377.021759 951.976990,389.125061 950.096375,401.287018 
	C949.514221,405.051910 947.216248,404.665466 944.707825,404.682220 
	C918.044617,404.860321 891.380981,405.000183 864.718384,405.246643 
	C820.727905,405.653259 776.738708,406.216766 732.747498,406.455597 
	C727.935364,406.481750 727.411560,408.551788 726.625305,412.474396 
	C717.410461,458.443542 707.880371,504.349335 698.575317,550.300598 
	C691.579529,584.848083 684.791077,619.437622 677.901367,654.006592 
	C677.549988,655.769836 677.113831,657.516113 676.783569,658.976562 
	C635.186340,658.976562 593.900024,658.976562 551.946045,658.976562 
	C590.769775,449.873474 629.464722,241.464066 668.262756,32.499096 
	C784.408569,33.084541 900.477417,33.669598 1017.097656,34.257435 
	C1014.682922,46.330185 1012.363770,58.018635 1010.004883,69.699066 
	C1004.803955,95.452713 999.460876,121.178802 994.495850,146.977737 
	C993.709290,151.065231 992.140198,151.862045 988.341187,151.842316 
	C919.849060,151.486160 851.356079,151.268982 782.863342,151.023560 
	C780.546143,151.015259 778.229004,151.022522 775.428711,151.022522 
	C767.432068,194.282135 759.468994,237.360062 751.421997,280.891998 
	C824.808838,281.396851 897.590881,281.897522 970.988159,282.402435 
	C966.148315,309.848633 961.368225,336.955994 956.469360,364.479614 
M616.337341,411.911285 
	C615.255859,417.801178 614.196411,423.695190 613.089355,429.580292 
	C602.204773,487.441162 591.313232,545.300659 580.421570,603.160217 
	C578.437683,613.699219 576.444397,624.236450 574.436279,634.876221 
	C602.623779,634.876221 630.224670,634.876221 657.980713,634.876221 
	C675.375671,550.279785 692.707214,465.991669 710.061584,381.592285 
	C784.428345,381.592285 858.062500,381.592285 932.244019,381.592285 
	C936.080811,354.849823 939.890686,328.294891 943.791016,301.109589 
	C869.483643,301.109589 795.905701,301.109589 722.048462,301.109589 
	C733.083496,244.123535 744.007690,187.710083 755.081421,130.524414 
	C828.942444,130.524414 902.235046,130.524414 975.648804,130.524414 
	C981.027405,104.540092 986.229431,79.408897 991.456116,54.158386 
	C888.363953,54.158386 785.960938,54.158386 682.944763,54.158386 
	C660.778931,173.364716 638.677551,292.224640 616.337341,411.911285 
z"/>
<path fill="#FEFEFE" opacity="1.000000" stroke="none" 
	d="
M862.000000,259.835266 
	C832.870972,259.835236 804.241943,259.835236 774.568115,259.835236 
	C779.921448,229.974518 785.119324,200.981400 790.382019,171.626495 
	C857.501465,171.626495 924.537903,171.626495 992.007202,171.626495 
	C986.583435,200.889633 981.168823,230.103409 975.658203,259.835327 
	C937.977905,259.835327 900.238953,259.835327 862.000000,259.835266 
z"/>
<path fill="#018E5A" opacity="1.000000" stroke="none" 
	d="
M1128.000000,639.230347 
	C1065.048584,639.230347 1002.597168,639.230347 939.602539,639.230347 
	C942.012817,626.551697 944.308472,614.492493 946.597473,602.432068 
	C957.419983,545.409180 968.232117,488.384338 979.064331,431.363312 
	C989.555237,376.138763 1000.069275,320.918640 1010.567322,265.695435 
	C1020.723694,212.269608 1030.876587,158.843124 1041.022705,105.415329 
	C1044.063232,89.403587 1047.170044,73.403259 1050.023193,57.357983 
	C1050.618530,54.009960 1052.311890,53.626335 1055.144043,53.649315 
	C1121.964722,54.191635 1188.786255,54.651604 1255.607300,55.164913 
	C1289.266479,55.423473 1322.925049,55.757755 1356.583984,56.054958 
	C1358.234375,56.069530 1359.885132,56.056828 1361.927002,56.056828 
	C1357.365356,77.077789 1352.932739,97.700241 1348.390381,118.298500 
	C1347.257568,123.436287 1347.293823,130.327377 1344.005981,133.061050 
	C1340.906006,135.638626 1334.135254,133.866776 1328.978760,133.895950 
	C1263.155884,134.268311 1197.332886,134.620575 1131.510010,134.976685 
	C1130.023071,134.984726 1128.536255,134.977707 1126.551025,134.977707 
	C1115.049805,190.267639 1103.582153,245.396194 1091.834961,301.868835 
	C1164.738281,301.868835 1237.116943,301.868835 1310.202148,301.868835 
	C1308.570801,312.190796 1307.191162,321.156403 1305.730713,330.108826 
	C1303.159302,345.871429 1300.413940,361.607147 1298.034302,377.398315 
	C1297.502075,380.930847 1296.005615,381.578094 1292.827637,381.589783 
	C1244.834473,381.766479 1196.841675,382.034943 1148.848999,382.321960 
	C1125.687500,382.460480 1102.526611,382.680237 1079.365479,382.874359 
	C1078.388428,382.882568 1077.412476,383.003479 1076.213867,383.087463 
	C1063.914795,441.747253 1051.645874,500.263153 1039.266724,559.304688 
	C1113.882446,559.304688 1187.928955,559.304688 1262.873657,559.304688 
	C1257.498779,586.228333 1252.240601,612.567261 1246.917725,639.230286 
	C1207.099609,639.230286 1167.799805,639.230286 1128.000000,639.230347 
z"/>
<path fill="#018E5A" opacity="1.000000" stroke="none" 
	d="
M242.722641,64.715210 
	C263.961578,54.057693 285.573669,45.693123 308.928192,42.464920 
	C380.065125,32.631927 445.329315,45.179836 502.106232,91.922501 
	C527.359314,112.712601 544.481445,138.913239 557.129578,168.586884 
	C566.479675,190.523010 573.720703,213.099869 578.771912,236.390594 
	C579.083130,237.825562 579.223022,239.297699 579.491089,241.073425 
	C577.808472,241.160431 576.345276,241.301117 574.881958,241.301987 
	C551.385437,241.315750 527.888062,241.209839 504.393250,241.411911 
	C500.473724,241.445602 498.965363,240.092285 497.964661,236.491714 
	C487.076874,197.316269 464.588898,166.217499 431.967957,142.223785 
	C411.717041,127.328583 388.750977,120.640701 363.910187,119.471695 
	C326.949524,117.732346 291.542725,122.893715 259.357544,142.679092 
	C236.955292,156.450562 218.290985,174.435028 201.472122,194.399414 
	C164.606659,238.159561 142.636887,288.574951 134.842148,345.205292 
	C130.549500,376.392181 129.679581,407.613831 134.995117,438.761047 
	C142.985870,485.583893 177.777069,548.122803 247.876862,564.325195 
	C293.903900,574.963501 337.096954,566.020569 377.163055,541.566833 
	C400.324615,527.430542 419.103302,508.312775 436.533966,487.767639 
	C441.057220,482.436157 444.823273,475.176270 450.628052,472.573975 
	C456.623169,469.886353 464.677216,471.726501 471.830933,471.700775 
	C491.327301,471.630646 510.823883,471.620911 530.320374,471.588013 
	C532.135254,471.584961 533.950134,471.587585 536.024902,471.587585 
	C535.921387,472.596741 536.023499,473.289215 535.772278,473.811707 
	C502.111206,543.817139 451.542236,596.914673 380.346191,629.487427 
	C352.748993,642.113342 323.537720,647.058655 293.541473,647.772095 
	C275.415192,648.203186 257.022736,649.159302 239.164963,646.773193 
	C199.555756,641.480408 163.894928,627.157227 133.625290,599.331726 
	C89.540031,558.806152 65.352760,508.816559 56.899315,450.349579 
	C50.894817,408.820404 54.070229,367.667175 61.766148,326.645111 
	C71.607796,274.185577 90.393448,225.330429 120.092926,180.881699 
	C147.558929,139.775635 180.139679,103.573761 222.146011,76.687286 
	C228.719406,72.479927 235.640427,68.815659 242.722641,64.715210 
z"/>
<path fill="#018E5B" opacity="1.000000" stroke="none" 
	d="
M616.456787,411.497925 
	C638.677551,292.224640 660.778931,173.364716 682.944763,54.158386 
	C785.960938,54.158386 888.363953,54.158386 991.456116,54.158386 
	C986.229431,79.408897 981.027405,104.540092 975.648804,130.524414 
	C902.235046,130.524414 828.942444,130.524414 755.081421,130.524414 
	C744.007690,187.710083 733.083496,244.123535 722.048462,301.109589 
	C795.905701,301.109589 869.483643,301.109589 943.791016,301.109589 
	C939.890686,328.294891 936.080811,354.849823 932.244019,381.592285 
	C858.062500,381.592285 784.428345,381.592285 710.061584,381.592285 
	C692.707214,465.991669 675.375671,550.279785 657.980713,634.876221 
	C630.224670,634.876221 602.623779,634.876221 574.436279,634.876221 
	C576.444397,624.236450 578.437683,613.699219 580.421570,603.160217 
	C591.313232,545.300659 602.204773,487.441162 613.089355,429.580292 
	C614.196411,423.695190 615.255859,417.801178 616.456787,411.497925 
z"/>
</svg>