<?xml version="1.0" encoding="UTF-8"?>
<svg version="1.1" xmlns="http://www.w3.org/2000/svg" width="1425" height="723">
<path d="M0 0 C0.82306641 0.24556641 1.64613281 0.49113281 2.49414062 0.74414062 C30.36630521 9.24257214 56.45949029 23.61631156 79 42 C79.97195313 42.76828125 80.94390625 43.5365625 81.9453125 44.328125 C97.01015587 56.58035056 111.39932297 70.59011595 122.79492188 86.35058594 C124.04646739 88.06360083 125.3383757 89.73933578 126.640625 91.4140625 C152.04952343 124.45976424 169.13175122 165.16967164 177 206 C177.33 206 177.66 206 178 206 C178.17761525 205.04584702 178.3552305 204.09169403 178.53822803 203.10862732 C182.8703183 179.836571 187.20252874 156.56453706 191.53486347 133.29252625 C193.62998792 122.03812691 195.72507406 110.78372044 197.82006836 99.52929688 C199.64716142 89.71405392 201.47432804 79.89882466 203.30158108 70.08361149 C204.26809134 64.89192235 205.23456606 59.70022659 206.20095253 54.5085144 C207.11275359 49.61005756 208.02465389 44.7116192 208.93662643 39.81319427 C209.26920187 38.02675794 209.60174275 36.24031517 209.93424416 34.45386505 C210.39289932 31.9896517 210.85168618 29.52546291 211.3105011 27.0612793 C211.43794576 26.37638648 211.56539043 25.69149366 211.69669706 24.98584652 C213.12385261 17.32252165 214.56345163 9.66159132 216 2 C466.14 2 716.28 2 974 2 C968.25511625 33.02237223 968.25511625 33.02237223 966.06152344 43.75170898 C965.80880676 44.99768356 965.55609009 46.24365814 965.29571533 47.52738953 C964.62450437 50.83629911 963.95050305 54.14463372 963.27580547 57.45283389 C962.5619966 60.9552121 961.85079149 64.4581192 961.13922119 67.96095276 C959.95083135 73.80916872 958.76070509 79.65702895 957.56933594 85.50463867 C956.1943444 92.25357497 954.82165153 99.00297557 953.45024467 105.75264114 C951.97856658 112.9957856 950.50551789 120.23865074 949.03191853 127.48140454 C948.61044695 129.55332416 948.18920243 131.62528983 947.76799774 133.69726372 C946.98674346 137.53985767 946.20391905 141.3821308 945.42089844 145.22436523 C945.18922974 146.36446045 944.95756104 147.50455566 944.71887207 148.67919922 C944.5059552 149.72269028 944.29303833 150.76618134 944.07366943 151.84129333 C943.79719385 153.19903445 943.79719385 153.19903445 943.5151329 154.58420467 C943.05603445 156.73721778 942.54999307 158.8686369 942 161 C921.25004905 161.17295111 900.5000484 161.33919006 879.75 161.5 C878.98342874 161.50594854 878.21685748 161.51189708 877.42705679 161.51802588 C837.13882353 161.83027724 796.85225086 162.10159728 756.5625 162.0625 C755.6736058 162.06164398 754.78471161 162.06078796 753.86888123 162.05990601 C743.57922818 162.04920177 733.28961495 162.03036138 723 162 C722.85026733 163.93721924 722.85026733 163.93721924 722.69750977 165.91357422 C721.90284464 173.81522647 720.31743096 181.58713675 718.83984375 189.3828125 C718.52702175 191.04996969 718.21457367 192.71719708 717.90248108 194.38449097 C717.08586213 198.7416318 716.26421481 203.09780924 715.44146729 207.45379639 C714.60047929 211.91132814 713.76431853 216.36976504 712.92773438 220.828125 C711.28984268 229.55296892 709.64663003 238.27680135 708 247 C735.14068109 247.57538751 762.27964727 248.06352189 789.42578125 248.28125 C790.60821285 248.29079712 791.79064445 248.30034424 793.00890732 248.31018066 C802.65501201 248.38700486 812.30116453 248.45689822 821.94732666 248.52606201 C830.37767427 248.58675678 838.80799219 248.65038059 847.23828125 248.71875 C848.9826264 248.73282898 848.9826264 248.73282898 850.76221085 248.74719238 C874.84621755 248.94811509 898.92232326 249.42418004 923 250 C920.70345006 267.38617453 918.12264529 284.72647896 915.48823881 302.06394982 C915.14464585 304.32574078 914.80149632 306.58759859 914.45848465 308.84947777 C913.25958972 316.75482285 912.05884118 324.65988395 910.85644531 332.56469727 C909.73776178 339.91954219 908.62350407 347.27504901 907.51114595 354.630853 C906.55094681 360.97905143 905.58759131 367.32676565 904.62176955 373.67411107 C904.04693189 377.45233615 903.47341528 381.2307504 902.90314865 385.00966835 C902.3699472 388.5423205 901.83284772 392.07435743 901.29265785 395.60594749 C901.00025457 397.52431183 900.71197064 399.44330262 900.42378235 401.36230469 C900.25004593 402.49303909 900.07630951 403.6237735 899.89730835 404.78877258 C899.67224389 406.27101806 899.67224389 406.27101806 899.44263268 407.78320789 C899 410 899 410 898 411 C895.15529168 411.097926 892.33486096 411.12992493 889.48973083 411.12025452 C888.13475159 411.12153615 888.13475159 411.12153615 886.75239903 411.12284368 C883.70136809 411.12450126 880.65039117 411.1189726 877.59936523 411.11352539 C875.42190553 411.11324355 873.24444573 411.11340119 871.06698608 411.1139679 C865.13540803 411.114256 859.20385001 411.10835716 853.27227664 411.10139394 C847.08093793 411.09516258 840.88959881 411.09455677 834.69825745 411.09336853 C823.63286153 411.09043182 812.56747393 411.08320169 801.50208182 411.07372581 C787.48013616 411.06178151 773.45819165 411.05559925 759.43624198 411.05032361 C731.95748951 411.03985775 704.47874527 411.02225706 677 411 C676.93617661 411.59896908 676.87235323 412.19793816 676.8065958 412.81505781 C676.72028872 413.61092265 676.63398165 414.40678749 676.5450592 415.22676945 C676.46061082 416.01136353 676.37616243 416.7959576 676.28915501 417.60432726 C675.82809191 421.42427248 675.1357237 425.19449461 674.43359375 428.97631836 C674.27899689 429.82298065 674.12440002 430.66964294 673.96511841 431.54196167 C673.45906874 434.30851189 672.94845209 437.0741951 672.4375 439.83984375 C672.08241252 441.77271625 671.72751643 443.70562393 671.37280273 445.63856506 C670.63177179 449.6725915 669.88847808 453.70619254 669.14355469 457.73950195 C668.18764445 462.91617388 667.23736602 468.09386106 666.28874207 473.27187252 C665.55835144 477.25528108 664.82505072 481.23814957 664.09085083 485.22085762 C663.73909261 487.13093211 663.38823965 489.04117354 663.03829956 490.95158195 C662.55062423 493.61142462 662.05905192 496.27051746 661.56640625 498.92944336 C661.42196075 499.72162766 661.27751526 500.51381195 661.12869263 501.33000183 C660.11427772 506.77144456 660.11427772 506.77144456 659 509 C730.94 509 802.88 509 877 509 C871.25300404 540.03377818 871.25300404 540.03377818 868.9855957 550.99536133 C868.72473175 552.26738403 868.4638678 553.53940674 868.19509888 554.84997559 C867.50148214 558.23141691 866.80462304 561.61218093 866.10680795 564.99275804 C865.51909824 567.84150538 864.93307682 570.6905991 864.34700841 573.53968447 C862.96612004 580.25246533 861.5825003 586.96467888 860.19702148 593.67651367 C858.77353811 600.57270021 857.35478924 607.46984926 855.93825275 614.36746579 C854.71106199 620.3422757 853.481033 626.31649643 852.2487151 632.29025096 C851.51717411 635.83657731 850.78667685 639.38311004 850.05892372 642.93021584 C849.25216494 646.86164763 848.43948129 650.79183186 847.6262207 654.72192383 C847.38879654 655.88288071 847.15137238 657.04383759 846.90675354 658.23997498 C846.68404785 659.31145782 846.46134216 660.38294067 846.23188782 661.4868927 C846.04111821 662.41233289 845.85034861 663.33777308 845.6537981 664.2912569 C844.94177106 667.24124764 843.95965764 670.12102708 843 673 C717.27 673 591.54 673 462 673 C462.62053542 666.17411038 463.27994545 659.65363419 464.51577759 652.960495 C464.66686804 652.12036183 464.8179585 651.28022866 464.97362745 650.41463691 C465.47478872 647.63455073 465.98273349 644.85575027 466.49072266 642.0769043 C466.85430238 640.06807248 467.2174602 638.05916426 467.58023071 636.05018616 C468.5638971 630.60965368 469.55348511 625.17021345 470.54417849 619.73095679 C471.58797459 613.99449672 472.62636072 608.25705739 473.66537476 602.51972961 C475.41587204 592.85787853 477.16982561 583.19666041 478.92626953 573.53588867 C481.37876346 560.04670178 483.82533106 546.55644544 486.27052999 533.06593454 C489.57127207 514.85704292 492.87399923 496.64850886 496.18328476 478.44116783 C496.53526271 476.50434127 496.88709912 474.56748898 497.23875427 472.63060379 C500.78864304 453.08014841 504.40025777 433.54145785 508 414 C441.67 414 375.34 414 307 414 C306.67 417.3 306.34 420.6 306 424 C305.66300906 426.03971053 305.29278893 428.07448272 304.87541199 430.09927368 C304.65055713 431.20255508 304.42570227 432.30583649 304.19403362 433.44255066 C303.94848641 434.62118179 303.70293921 435.79981293 303.44995117 437.01416016 C303.18895284 438.28720505 302.9279545 439.56024994 302.65904713 440.87187195 C301.94316752 444.36288066 301.2210178 447.85256553 300.49770927 451.34204149 C299.72523462 455.07415454 298.95857254 458.80746189 298.19116211 462.5406189 C296.70847757 469.74854282 295.22033946 476.95532992 293.73015821 484.16170728 C292.53128054 489.95994696 291.33454869 495.75862575 290.13931274 501.55761719 C289.97003 502.37892286 289.80074725 503.20022852 289.62633473 504.04642224 C289.28396 505.7075435 288.94158777 507.36866526 288.59921801 509.02978754 C284.8765013 527.08994087 281.14342542 545.14794483 277.40620917 563.20510268 C276.35928152 568.26356657 275.31278524 573.3221195 274.26660156 578.3807373 C271.12628605 593.56436636 267.98048072 608.74684217 264.82574844 623.9274826 C264.18713393 627.00176227 263.54934409 630.0762121 262.91171265 633.1506958 C261.92941904 637.88568206 260.94420903 642.62005155 259.95645142 647.35390091 C259.60218733 649.05363319 259.24883941 650.75355671 258.89648438 652.45368576 C258.42474317 654.72879548 257.94956978 657.00315984 257.47338867 659.27734375 C257.21079758 660.53796631 256.94820648 661.79858887 256.67765808 663.09741211 C256 666 256 666 255 668 C201.87 668 148.74 668 94 668 C94 658.99992654 94 658.99992654 94.70544434 655.14456177 C94.86216614 654.26870422 95.01888794 653.39284668 95.18035889 652.490448 C95.3548053 651.55661285 95.52925171 650.62277771 95.70898438 649.66064453 C95.89120544 648.65404785 96.07342651 647.64745117 96.26116943 646.61035156 C96.86526086 643.28323154 97.47940428 639.95805308 98.09375 636.6328125 C98.52355879 634.27873946 98.95278766 631.92456047 99.38146973 629.57028198 C100.5162835 623.34800863 101.65981807 617.12736723 102.80493164 610.90698242 C103.71449533 605.9578953 104.61779699 601.0076761 105.52073669 596.05737686 C109.10367352 576.41659487 112.69106157 556.77661279 116.44140625 537.16699219 C116.63160591 536.17240683 116.82180557 535.17782146 117.01776886 534.15309715 C117.90300978 529.53093786 118.79295775 524.90974387 119.68981934 520.28982544 C119.9266468 519.06204062 119.9266468 519.06204062 120.16825867 517.80945206 C120.45925977 516.30095914 120.75244598 514.79288535 121.04829407 513.28533554 C121.59055376 510.46665942 122 507.87896524 122 505 C121.47792969 505.70382812 120.95585938 506.40765625 120.41796875 507.1328125 C114.85771379 514.59192861 109.16308608 521.93253003 103.39404297 529.23095703 C102.03926487 530.95017281 100.69210791 532.6750449 99.34765625 534.40234375 C92.60158959 543.05969233 85.68647806 551.56850011 78.65966797 559.99951172 C77.18881155 561.77241514 75.73477237 563.55739927 74.28515625 565.34765625 C67.63540484 573.44873252 60.32277442 580.88834679 52.9375 588.3125 C52.17690277 589.08099777 52.17690277 589.08099777 51.40093994 589.86502075 C44.60506893 596.71542467 37.57312109 603.00039769 30 609 C28.75653484 610.02421979 27.51531011 611.05117186 26.27734375 612.08203125 C-20.97695414 650.92137042 -76.77237996 669.16323355 -137 675 C-138.08982178 675.11021484 -138.08982178 675.11021484 -139.20166016 675.22265625 C-143.1337392 675.61306072 -147.05146627 675.85473622 -151 676 C-151.72203613 676.02723145 -152.44407227 676.05446289 -153.18798828 676.08251953 C-216.98621755 678.13802479 -281.71718759 660.23379861 -329 616 C-339.69249265 605.85290804 -350.16146518 595.60191801 -358.81738281 583.63134766 C-360.02130517 581.97061083 -361.2541715 580.33465234 -362.4921875 578.69921875 C-369.50949002 569.30279967 -375.36908746 559.27471536 -381 549 C-381.36335449 548.33806641 -381.72670898 547.67613281 -382.10107422 546.99414062 C-407.01068115 500.96681523 -416.2467975 448.5266909 -416.1875 396.6875 C-416.18689575 395.71167969 -416.1862915 394.73585938 -416.18566895 393.73046875 C-416.16048018 378.7302493 -415.83395998 363.90554047 -414 349 C-413.86577637 347.90445801 -413.73155273 346.80891602 -413.59326172 345.68017578 C-407.39880549 296.66645514 -395.35155848 248.13077601 -375 203 C-374.57251465 202.05012207 -374.1450293 201.10024414 -373.70458984 200.12158203 C-363.95746098 178.68078765 -352.51693211 158.28902744 -339 139 C-338.46874512 138.23816406 -337.93749023 137.47632813 -337.39013672 136.69140625 C-330.39054918 126.69615325 -323.05738817 117.16203009 -315 108 C-314.04867187 106.89978516 -314.04867187 106.89978516 -313.078125 105.77734375 C-311.39850725 103.8396196 -309.70074274 101.91918676 -308 100 C-307.39671875 99.30390625 -306.7934375 98.6078125 -306.171875 97.890625 C-301.13109223 92.15721559 -295.82503557 86.71928094 -290.4375 81.3125 C-289.37523193 80.24334351 -289.37523193 80.24334351 -288.29150391 79.15258789 C-273.91974106 64.8224389 -257.81750951 52.3178205 -241 41 C-240.28569824 40.51708496 -239.57139648 40.03416992 -238.83544922 39.53662109 C-217.70898222 25.38458158 -195.13373068 14.01356361 -171 6 C-169.55415527 5.51926025 -169.55415527 5.51926025 -168.07910156 5.02880859 C-154.25433263 0.50160202 -140.28848209 -3.26109928 -126 -6 C-124.99485352 -6.19754883 -123.98970703 -6.39509766 -122.95410156 -6.59863281 C-82.46046598 -14.23257645 -39.36058916 -11.93364045 0 0 Z M-146.6875 16.5625 C-148.31123535 17.07913208 -148.31123535 17.07913208 -149.96777344 17.60620117 C-199.93787272 33.86131673 -242.75421409 61.5660441 -280.9375 97.25 C-281.63528564 97.89928467 -282.33307129 98.54856934 -283.05200195 99.2175293 C-287.08686033 103.02519426 -290.82851972 106.97502536 -294.4387207 111.18701172 C-296.43276615 113.50253659 -298.53018864 115.71315083 -300.625 117.9375 C-360.74379456 183.98606944 -391.52631234 276.31416526 -398 364 C-398.05784668 364.70688965 -398.11569336 365.4137793 -398.17529297 366.14208984 C-402.94773361 424.89833972 -395.26478984 484.65322521 -367 537 C-366.65114746 537.65758301 -366.30229492 538.31516602 -365.94287109 538.99267578 C-356.07527443 557.52709736 -343.44665095 573.79398583 -329 589 C-328.49307617 589.53560547 -327.98615234 590.07121094 -327.46386719 590.62304688 C-319.55492818 598.92175892 -311.19414696 606.16536744 -302 613 C-301.44231934 613.4237793 -300.88463867 613.84755859 -300.31005859 614.28417969 C-290.75024583 621.5426077 -280.63409866 627.45410331 -270 633 C-268.8346875 633.61617187 -267.669375 634.23234375 -266.46875 634.8671875 C-207.94756639 663.99355641 -127.24518594 662.16081556 -66.20703125 642.171875 C-56.89686548 638.99103399 -47.90490747 635.17195476 -39 631 C-38.28166992 630.66500488 -37.56333984 630.33000977 -36.82324219 629.98486328 C-16.036637 620.18657848 3.4076342 607.7960484 21 593 C21.54785156 592.54093262 22.09570312 592.08186523 22.66015625 591.60888672 C28.8357347 586.42200104 34.96706455 581.25675287 40.5625 575.4375 C42 574 42 574 45 571.5625 C47.97641202 569.02014807 50.38092269 566.37624894 52.90625 563.40234375 C54.9161276 561.09623419 57.00219692 558.87861207 59.11083984 556.66308594 C66.74105829 548.59734712 73.42558178 539.93602378 80 531 C80.49467773 530.33548828 80.98935547 529.67097656 81.49902344 528.98632812 C99.46694243 504.7650452 113.91371668 477.91027723 126.375 450.5 C126.75060059 449.6752417 127.12620117 448.8504834 127.51318359 448.00073242 C128.01325928 446.87115112 128.01325928 446.87115112 128.5234375 445.71875 C128.81138184 445.06841797 129.09932617 444.41808594 129.39599609 443.74804688 C130.16329229 441.83565873 130.16329229 441.83565873 130 439 C114.10123335 438.76608844 98.20293336 438.58990807 82.3028717 438.48187828 C74.91959005 438.43037748 67.53737927 438.36020661 60.15478516 438.24560547 C53.71776982 438.14573058 47.28153009 438.0813717 40.84376144 438.05911505 C37.43651011 438.04610925 34.03147692 438.0156978 30.62493896 437.94269943 C26.81503272 437.86999955 23.00970793 437.86011246 19.19921875 437.86474609 C18.07784012 437.82879333 16.95646149 437.79284058 15.80110168 437.75579834 C11.07341423 437.81793378 8.17503084 437.95195812 4.56239319 441.17416763 C2.51845198 443.70038446 0.7328853 446.25365934 -1 449 C-1.87686812 450.22267753 -2.75913696 451.44155076 -3.65234375 452.65234375 C-4.41588268 453.74612747 -5.1776143 454.84117512 -5.9375 455.9375 C-12.94245486 465.87303018 -20.70648816 475.11409446 -29 484 C-29.79664063 484.86238281 -30.59328125 485.72476562 -31.4140625 486.61328125 C-60.54424014 517.01955429 -106.11166373 536.15051357 -148.1875 537.203125 C-184.98229623 537.62806307 -215.73380118 527.40492361 -242.56542969 501.41455078 C-273.72802023 470.68683641 -285.55173095 430.22583417 -286.1875 387.375 C-286.00349724 328.3918933 -273.32356016 267.83752274 -239 219 C-238.22248103 217.87121442 -237.44514523 216.74230266 -236.66796875 215.61328125 C-230.90702918 207.32211409 -224.65599386 199.5855029 -218 192 C-217.27296875 191.16082031 -216.5459375 190.32164062 -215.796875 189.45703125 C-213.57139186 186.93069576 -211.30150071 184.45735036 -209 182 C-208.51225098 181.47825195 -208.02450195 180.95650391 -207.52197266 180.41894531 C-182.77287531 154.17839119 -154.92606094 141.53645699 -120 134 C-119.1642041 133.81920898 -118.3284082 133.63841797 -117.46728516 133.45214844 C-83.605984 126.47886922 -45.73732903 129.90442624 -16.18359375 148.80078125 C-13.37177996 150.77764596 -10.68152889 152.84961301 -8 155 C-7.18813232 155.64364502 -7.18813232 155.64364502 -6.35986328 156.30029297 C7.6772609 167.51811322 18.71026955 180.64453117 28 196 C28.3825293 196.63180176 28.76505859 197.26360352 29.15917969 197.91455078 C37.23552075 211.54380665 42.19273147 226.40142243 47.11474609 241.39599609 C47.47262207 242.48605957 47.83049805 243.57612305 48.19921875 244.69921875 C48.52108154 245.69139404 48.84294434 246.68356934 49.17456055 247.70581055 C49.79245616 249.93444306 49.79245616 249.93444306 51 251 C53.67850112 251.10056252 56.33124041 251.13615768 59.01025391 251.12939453 C59.85127655 251.13114685 60.69229919 251.13289917 61.55880737 251.13470459 C64.36474627 251.13913519 67.17062285 251.13617517 69.9765625 251.1328125 C71.93785616 251.13348657 73.89914974 251.13445747 75.86044312 251.13571167 C79.99502346 251.13719137 84.1295823 251.13503048 88.26416016 251.13037109 C93.49584545 251.12475576 98.72747851 251.12789792 103.95916176 251.13394356 C108.0262387 251.13761291 112.09330395 251.13638049 116.16038132 251.13381577 C118.08396791 251.13315961 120.00755565 251.13392765 121.9311409 251.13629532 C135.97807332 251.1497556 149.97129412 250.71335231 164 250 C164.00684814 248.74003204 164.01369629 247.48006409 164.02075195 246.18191528 C164.02460403 245.47318331 164.02845612 244.76445133 164.03242493 244.03424263 C163.14605982 188.42635481 131.45079117 123.94328897 95 83 C94.5477002 82.48598633 94.09540039 81.97197266 93.62939453 81.44238281 C74.43024851 59.67380901 51.12658425 43.37296777 24.99316406 30.95605469 C22.9703114 29.98575936 20.96545491 28.98412416 18.9609375 27.9765625 C-6.65424636 15.26615884 -33.4461905 9.87508595 -61.9296875 9.796875 C-62.98725943 9.79263393 -62.98725943 9.79263393 -64.06619644 9.78830719 C-67.80455128 9.77340213 -71.54286845 9.76412043 -75.28125 9.75976562 C-78.32596948 9.75539928 -81.37040268 9.74156733 -84.41503906 9.71875 C-105.73537014 9.56240279 -126.19476718 9.88222114 -146.6875 16.5625 Z M233 22 C231.56683391 26.06081486 230.516639 30.0146119 229.73547363 34.24766541 C229.5042792 35.48870277 229.27308477 36.72974014 229.03488445 38.0083847 C228.78424958 39.37789064 228.53369192 40.7474107 228.28320312 42.11694336 C228.01253865 43.57888287 227.74149225 45.04075172 227.47009754 46.50255585 C226.72614886 50.51565845 225.987534 54.5297271 225.24975038 58.54396701 C224.45379606 62.86926041 223.65279074 67.19361843 222.8523407 71.51808167 C221.46329617 79.02604949 220.077259 86.53456737 218.69320679 94.04345703 C216.4722566 106.09230483 214.2450671 118.13999507 212.0168457 130.1875 C211.25170062 134.32479422 210.48658684 138.46209422 209.72148132 142.59939575 C209.53056327 143.63175295 209.33964522 144.66411015 209.14294177 145.7277509 C207.77094294 153.14698429 206.39975821 160.56636789 205.02888489 167.98580933 C199.87082159 195.90075924 194.69884011 223.81309139 189.51171875 251.72265625 C189.33987304 252.64730045 189.16802734 253.57194465 188.99097419 254.52460837 C187.08378645 264.78631328 185.17607468 275.04792072 183.26809692 285.30947876 C179.94095919 303.20362172 176.61567924 321.09810998 173.29051757 338.99262023 C172.75796865 341.85853466 172.22540281 344.72444594 171.69283485 347.59035683 C165.87120768 378.91873266 160.05538443 410.24818386 154.2421875 441.578125 C154.03876905 442.67442482 153.83535059 443.77072464 153.62576795 444.90024567 C149.65186941 466.31712132 145.67829282 487.73405669 141.70568949 509.15117264 C140.7850454 514.11452043 139.86434449 519.07785767 138.94349957 524.04116821 C138.76478677 525.00442394 138.58607398 525.96767967 138.40194565 526.96012497 C138.04483905 528.88491235 137.6877298 530.80969924 137.33061785 532.73448563 C136.29146226 538.33572954 135.25285771 543.93707528 134.21468657 549.53850174 C131.14092354 566.12185554 128.06215396 582.7041435 124.94096625 599.27864599 C124.53415559 601.43973538 124.12789999 603.60092827 123.72187328 605.76216507 C123.52764026 606.79597435 123.52764026 606.79597435 123.32948333 607.85066867 C123.07468707 609.20687832 122.81991378 610.56309229 122.56516474 611.91931081 C121.73726249 616.32422212 120.90279163 620.72786058 120.06703186 625.13128662 C119.65245912 627.33520433 119.23809227 629.53916079 118.82397461 631.74316406 C118.54205796 633.21457226 118.54205796 633.21457226 118.25444603 634.71570587 C118.08696672 635.61230675 117.91948742 636.50890762 117.74693298 637.43267822 C117.52874609 638.58442221 117.52874609 638.58442221 117.30615139 639.75943375 C116.97306208 642.19714491 116.94819761 644.54262106 117 647 C143.83096992 647.88012822 170.63143426 648.13212725 197.47558594 648.06866455 C202.41210474 648.05816884 207.34862935 648.05381264 212.28515625 648.04882812 C221.85678511 648.0383145 231.42838969 648.02140399 241 648 C241.20455811 646.80479736 241.40911621 645.60959473 241.61987305 644.37817383 C249.33192467 599.55000252 258.96199819 555.17065323 268.80493164 510.77416992 C269.29177724 508.57814914 269.77860774 506.382125 270.26539993 504.18609238 C270.58801771 502.73072265 270.91067741 501.27536221 271.23337936 499.82001114 C284.82628788 447.88014936 284.82628788 447.88014936 291 395 C291.71230774 395.00222061 292.42461548 395.00444122 293.1585083 395.00672913 C335.38959379 395.13107497 377.61550416 394.97859106 419.84507751 394.59428024 C423.33099629 394.56289617 426.81692391 394.53277208 430.30285645 394.50296021 C457.8779421 394.26469455 485.4366741 393.85580914 513 393 C517.55575113 371.25784078 521.37515542 349.38708378 525.21313477 327.50927734 C526.13731659 322.24200791 527.06814836 316.97593675 528.00063801 311.7101326 C528.72335507 307.6237765 529.44214416 303.53673691 530.1597805 299.44948578 C530.50173665 297.50520228 530.84502429 295.56115245 531.18969154 293.61734772 C531.66740339 290.92040032 532.13969367 288.22255762 532.6105957 285.52441406 C532.82323059 284.33391701 532.82323059 284.33391701 533.04016113 283.11936951 C533.68813597 279.3737876 534.16793894 275.80449136 534 272 C503.9711771 271.17100496 473.9446873 270.85776753 443.90625 270.68359375 C442.50596746 270.6754744 442.50596746 270.6754744 441.07739639 270.66719103 C429.51241594 270.60074433 417.94740618 270.54055799 406.38238049 270.48259127 C396.39120835 270.43236111 386.40006127 270.37776988 376.40891361 270.32291877 C355.93929916 270.21063349 335.46966069 270.10349104 315 270 C315.12714229 269.37308478 315.25428457 268.74616957 315.38527966 268.10025692 C318.61870965 252.12524544 321.69473317 236.12727339 324.64453125 220.09765625 C325.06325786 217.82887237 325.48209875 215.56010958 325.90104675 213.29136658 C326.76686606 208.60030972 327.63137034 203.90901311 328.49487305 199.2175293 C329.603092 193.1970654 330.71467154 187.17722743 331.82718372 181.15755558 C332.68717476 176.50229046 333.54546996 171.84671397 334.40323448 167.19103813 C334.81299654 164.96809762 335.22328348 162.7452538 335.63410378 160.52250862 C336.20286373 157.44378742 336.76934992 154.36465661 337.33520508 151.28540039 C337.58991829 149.9104113 337.58991829 149.9104113 337.84977722 148.50764465 C338.00242035 147.67436646 338.15506348 146.84108826 338.31233215 145.9825592 C338.51275981 144.89469415 338.51275981 144.89469415 338.71723652 143.78485203 C339.05215754 141.97195782 339.05215754 141.97195782 339 140 C410.94 140 482.88 140 557 140 C558.8647843 132.5408628 560.66061642 125.1534115 562.17651367 117.62915039 C562.46977791 116.19016388 562.46977791 116.19016388 562.76896667 114.72210693 C563.40481901 111.59786133 564.03663394 108.47281763 564.66796875 105.34765625 C565.11198626 103.15716057 565.55610518 100.96668545 566.00032043 98.77622986 C566.92588001 94.2085464 567.84925217 89.64042713 568.77124023 85.07202148 C569.95303624 79.21790654 571.14182487 73.36523556 572.33240795 67.51290226 C573.24937293 63.00032937 574.1619081 58.48686921 575.07317543 53.97314262 C575.50981107 51.81386586 575.94800071 49.65490274 576.38777733 47.4962635 C577.00036096 44.48678289 577.60678899 41.47612473 578.21166992 38.46508789 C578.48512238 37.1317466 578.48512238 37.1317466 578.76409912 35.77146912 C578.92804672 34.94893646 579.09199432 34.12640381 579.26091003 33.27894592 C579.40450046 32.56908067 579.54809088 31.85921541 579.69603252 31.12783909 C580.03865652 28.7293959 580.05006273 26.41958856 580 24 C554.71834474 23.22868498 529.45198423 22.81324333 504.15922427 22.69668961 C499.41033916 22.67400266 494.66147867 22.64686496 489.91261292 22.6204834 C480.79786488 22.5706585 471.68309982 22.52549467 462.56831795 22.48234785 C455.23804164 22.44759329 447.90777665 22.41096613 440.57751465 22.37332153 C371.38455841 22.01928814 302.19381574 21.86011519 233 22 Z M600 23 C597.20075408 36.89075068 594.42892732 50.78346982 591.85083008 64.71704102 C591.56964331 66.22940466 591.28830776 67.74174065 591.00684071 69.25405216 C590.25088597 73.31817374 589.4970413 77.38268395 588.74363947 81.44727945 C587.92571551 85.85793134 587.10581968 90.26821679 586.28622437 94.67855835 C584.68533766 103.29500734 583.08640639 111.91181808 581.48821235 120.52876687 C580.1727195 127.62128321 578.85644172 134.71365351 577.53970337 141.80593872 C563.23045927 218.88091597 548.98239615 295.96717052 534.74730873 373.05587196 C526.04207342 420.19774858 517.32427631 467.33730095 508.60414058 514.47642332 C507.17561588 522.19883363 505.74733585 529.92128916 504.31918335 537.64376831 C502.58275342 547.03319444 500.84604542 556.42256907 499.10897428 565.8118766 C498.22314253 570.60004558 497.33741932 575.38823456 496.45202827 580.17648506 C495.63692689 584.58454763 494.82146058 588.99254255 494.00571072 593.40048516 C493.69684032 595.06975614 493.38808502 596.73904843 493.07945144 598.40836322 C491.47028443 607.11104817 489.85059875 615.8115354 488.20324707 624.50708008 C487.91819909 626.01466023 487.6331559 627.52224128 487.34811783 629.0298233 C486.81921377 631.82636881 486.28668933 634.62219069 485.75194931 637.41762543 C485.52010059 638.64190498 485.28825188 639.86618454 485.04937744 641.12756348 C484.74378088 642.72917202 484.74378088 642.72917202 484.43201065 644.36313629 C483.91916025 647.04808523 483.91916025 647.04808523 484 650 C512.24367296 650.02329427 540.4873447 650.04074791 568.73102554 650.05106533 C572.1381479 650.05231463 575.54527024 650.05360909 578.95239258 650.05493164 C579.63011045 650.05519395 580.30782832 650.05545626 581.00608309 650.05572652 C591.03669158 650.05970774 601.06729475 650.06669526 611.09790039 650.07543945 C626.70719355 650.08877856 642.31648217 650.09687492 657.92578125 650.09765625 C659.21152747 650.09772061 660.49727368 650.09778497 661.82198191 650.09785128 C716.88502654 650.09622677 771.94101872 649.64133856 827 649 C828.97238946 641.38114185 830.71976952 633.76414264 832.17651367 626.03076172 C832.37202316 625.00809708 832.56753265 623.98543243 832.76896667 622.93177795 C833.40532836 619.59837804 834.03676935 616.26406843 834.66796875 612.9296875 C835.11183747 610.59745635 835.55595878 608.26527326 836.00032043 605.93313599 C836.92610453 601.07041194 837.84957474 596.20725632 838.77124023 591.34375 C839.95463321 585.09960513 841.14273816 578.85636834 842.33240795 572.61341667 C843.24747164 567.8097586 844.16064438 563.0057427 845.07317543 558.20160294 C845.51091413 555.89773043 845.94911381 553.59394547 846.38777733 551.29024887 C846.9975858 548.08561008 847.60498574 544.88052449 848.21166992 541.67529297 C848.48512238 540.24161629 848.48512238 540.24161629 848.76409912 538.77897644 C848.92804672 537.91008286 849.09199432 537.04118927 849.26091003 536.14596558 C849.40450046 535.38908888 849.54809088 534.63221218 849.69603252 533.85239983 C850.05397609 531.98392812 850.05397609 531.98392812 850 530 C743.575 529.505 743.575 529.505 635 529 C648 462.125 648 462.125 652.11328125 440.98095703 C653.32434565 434.74600476 653.32434565 434.74600476 654.53491211 428.51095581 C655.07566549 425.72586533 655.61747474 422.94098246 656.15991211 420.15621948 C656.85084167 416.608946 657.53999362 413.06133162 658.2278347 409.51345801 C658.60110319 407.59056726 658.97621785 405.66803516 659.35139465 403.74551582 C659.67885933 402.05368077 659.67885933 402.05368077 660.01293945 400.32766724 C660.20467239 399.34134874 660.39640533 398.35503025 660.59394836 397.33882332 C661.05701828 395.06721445 661.05701828 395.06721445 661 393 C733.6 393 806.2 393 881 393 C882.98 380.13 884.96 367.26 887 354 C888.54520415 345.17824486 890.10738558 336.36568595 891.75 327.5625 C895.47979585 307.5199192 897.97383046 288.52339087 899 268 C828.05 268 757.1 268 684 268 C695.5 206.75 695.5 206.75 699.13867188 187.40136719 C700.21025929 181.68408065 700.21025929 181.68408065 701.28088379 175.96661377 C701.75872239 173.41736394 702.23772027 170.86835751 702.71838379 168.31964111 C703.44577757 164.4622057 704.16743195 160.60370817 704.88867188 156.74511719 C705.21188038 155.03824297 705.21188038 155.03824297 705.54161835 153.29688644 C705.73473854 152.25860325 705.92785873 151.22032005 706.12683105 150.15057373 C706.38124592 148.79553804 706.38124592 148.79553804 706.64080048 147.4131279 C707.0981534 144.7472177 707.0981534 144.7472177 707 141 C708.32797104 141.00333092 708.32797104 141.00333092 709.68276978 141.00672913 C721.66350335 141.03513612 733.64423733 141.05228733 745.625 141.0625 C746.62172604 141.06335602 747.61845207 141.06421204 748.64538193 141.06509399 C788.70303989 141.09528483 828.75659945 140.83601107 868.8125 140.5 C869.52573457 140.49402628 870.23896914 140.48805257 870.97381687 140.48189783 C889.31593896 140.32813647 907.65799991 140.16771196 926 140 C929.13223174 128.31402606 931.35296286 116.45495969 933.66796875 104.5859375 C934.11186798 102.32097167 934.55598881 100.05604926 935.00032043 97.79116821 C935.92591208 93.06965444 936.84939047 88.34773403 937.77124023 83.62548828 C938.95482827 77.56296354 940.14289378 71.50132683 941.33240795 65.43996239 C942.24747645 60.77528302 943.16064168 56.11023275 944.07317543 51.44505692 C944.51087848 49.20816089 944.94907801 46.97136195 945.38777733 44.7346611 C945.99761788 41.62343791 946.6050015 38.51174541 947.21166992 35.39990234 C947.48512238 34.00830399 947.48512238 34.00830399 947.76409912 32.58859253 C947.92804672 31.74494141 948.09199432 30.90129028 948.26091003 30.03207397 C948.40450046 29.29732031 948.54809088 28.56256664 948.69603252 27.80554771 C949.05533858 25.97645158 949.05533858 25.97645158 949 24 C899.52973377 23.14812098 850.06252979 22.89972536 800.5859375 22.90234375 C799.85755539 22.90237162 799.12917327 22.90239949 798.37871897 22.90242821 C779.64473834 22.90336616 760.91076724 22.91395856 742.17679238 22.92797339 C731.30796624 22.93601283 720.43914097 22.94139904 709.5703125 22.94506836 C708.40633576 22.94546244 708.40633576 22.94546244 707.21884434 22.94586449 C703.32228935 22.94717042 699.42573435 22.94843392 695.52917933 22.94967639 C663.68611465 22.95988402 631.84305841 22.97742897 600 23 Z M-210.55957031 208.70019531 C-213.18985802 211.68906601 -215.59595981 214.82861857 -218 218 C-218.99515537 219.2348818 -219.99275979 220.46779213 -220.9921875 221.69921875 C-246.67011309 253.72389458 -259.72389374 293.04337753 -267 333 C-267.17934082 333.96599121 -267.35868164 334.93198242 -267.54345703 335.92724609 C-274.17947416 373.33803979 -272.32492292 415.91885115 -257 451 C-256.35804688 452.46953125 -256.35804688 452.46953125 -255.703125 453.96875 C-247.64743892 471.16628207 -234.99992546 485.51700622 -220 497 C-219.14921875 497.67804688 -218.2984375 498.35609375 -217.421875 499.0546875 C-192.45962462 518.26216758 -160.9690077 520.93843972 -130.44458008 517.12939453 C-101.66363391 512.98083778 -74.81842891 501.44077961 -53 482 C-52.175 481.28328125 -51.35 480.5665625 -50.5 479.828125 C-32.68807974 464.13137027 -18.77094905 446.07886873 -5.875 426.25 C-5.48425293 425.65316406 -5.09350586 425.05632812 -4.69091797 424.44140625 C-2.63666406 421.4606222 -2.63666406 421.4606222 -2 418 C44.53 418 91.06 418 139 418 C141.03596048 409.85615808 142.86951557 401.85281983 144.34423828 393.61303711 C144.55764862 392.4390184 144.77105896 391.26499969 144.99093628 390.05540466 C145.56823552 386.87420034 146.14195292 383.69237852 146.71369028 380.5101707 C147.19419252 377.83856824 147.67726337 375.16743277 148.16032016 372.49629122 C149.3007703 366.18982762 150.43714648 359.88263968 151.57080078 353.57495117 C152.73508535 347.09718544 153.90577262 340.62060057 155.07969487 334.14457506 C156.0930262 328.5533286 157.10260994 322.96141441 158.1091975 317.36894995 C158.70797994 314.04231051 159.30805707 310.71591938 159.91165543 307.39015007 C160.58389175 303.68010097 161.24998324 299.96899776 161.91455078 296.25756836 C162.21066254 294.63398407 162.21066254 294.63398407 162.51275635 292.9776001 C163.69446961 286.33234956 164.50439485 279.73145597 165 273 C152.90545521 272.86757021 140.81089112 272.73707256 128.71630096 272.60884857 C123.09650168 272.54921219 117.47671025 272.48898136 111.85693359 272.42724609 C86.57059597 272.14990261 61.2880636 271.90606754 36 272 C35.79839264 270.56278091 35.79839264 270.56278091 35.5927124 269.0965271 C35.41484192 267.83796906 35.23697144 266.57941101 35.05371094 265.28271484 C34.87805603 264.03581879 34.70240112 262.78892273 34.52142334 261.50424194 C29.86212392 230.19127374 14.73163694 204.38373402 -6 181 C-6.56847656 180.34644531 -7.13695312 179.69289062 -7.72265625 179.01953125 C-23.83223969 161.67391839 -48.74031708 150.41289106 -72.19970703 148.77685547 C-130.01822489 146.82392703 -172.14918919 166.82638596 -210.55957031 208.70019531 Z M355 161 C352.55823135 171.50733311 352.55823135 171.50733311 350.46606445 182.0534668 C350.33882996 182.75440964 350.21159546 183.45535248 350.08050537 184.17753601 C349.67169118 186.43422136 349.2673494 188.69167923 348.86328125 190.94921875 C348.57633223 192.54014605 348.28915241 194.13103173 348.00175476 195.72187805 C347.40569214 199.02509016 346.81174436 202.32867272 346.21948242 205.63256836 C345.45958608 209.87113092 344.6952712 214.10888218 343.92953205 218.34639263 C343.33881192 221.61712547 342.74987958 224.8881781 342.16155052 228.15934181 C341.88009516 229.72356852 341.59819766 231.28771574 341.31585121 232.85178185 C340.92406883 235.02416928 340.53457403 237.19695409 340.14575195 239.36987305 C339.81290947 241.22300362 339.81290947 241.22300362 339.4733429 243.11357117 C338.94605747 245.84144253 338.94605747 245.84144253 339 248 C357.54636557 248.13258942 376.09274504 248.26303405 394.63914204 248.39115143 C403.25707503 248.45072981 411.87500269 248.51093365 420.49291992 248.57275391 C430.47052695 248.64423893 440.44814463 248.71401559 450.42578125 248.78125 C451.23861022 248.78672726 452.05143918 248.79220451 452.88889933 248.79784775 C481.59290673 248.99003263 510.29528179 249.06604012 539 249 C541.34844819 239.24889606 543.30783482 229.45272282 545.13671875 219.59375 C545.4237798 218.0548696 545.71095757 216.51601096 545.99824524 214.97717285 C546.59426338 211.78070988 547.18811316 208.58385334 547.78051758 205.38671875 C548.53877738 201.29609047 549.3037588 197.20675054 550.07046795 193.11769867 C550.66294384 189.95269021 551.25128915 186.78692438 551.83844948 183.6209259 C552.11891639 182.11202239 552.40079881 180.60338125 552.68414879 179.09501648 C553.07847653 176.99315107 553.46707184 174.8903022 553.85424805 172.78710938 C554.07614304 171.59388062 554.29803802 170.40065186 554.5266571 169.17126465 C555.12302051 165.71019639 555.12302051 165.71019639 555 161 C489 161 423 161 355 161 Z " fill="#0D9161" transform="translate(435,10)"/>
<path d="M0 0 C31.19451039 -0.07220714 62.38524304 0.12462215 93.57867551 0.37092662 C97.61672243 0.40274016 101.65477223 0.43415812 105.69282341 0.46542549 C116.95865098 0.55273089 128.22447445 0.64052198 139.49028111 0.73049068 C140.20202555 0.73617434 140.91376999 0.74185801 141.64708244 0.7477139 C143.08853781 0.75922681 144.52999318 0.77074007 145.97144855 0.78225368 C147.04410325 0.79082058 147.04410325 0.79082058 148.13842773 0.79956055 C149.21244255 0.80813893 149.21244255 0.80813893 150.30815464 0.8168906 C161.95889791 0.90984686 173.60966715 0.99896838 185.26045264 1.08645802 C197.33151762 1.17715573 209.40255524 1.27096235 221.47357219 1.36784559 C228.20804648 1.4218298 234.94252462 1.47449012 241.67703438 1.5238781 C247.99682203 1.5703189 254.31656605 1.62075158 260.63629913 1.67408943 C262.93423044 1.69283206 265.23217331 1.7102205 267.53012657 1.7260437 C282.3738538 1.82930484 297.17453436 2.24819451 312 3 C311.84945704 4.42306594 311.69673187 5.84590112 311.54310703 7.26863766 C311.45829628 8.06100352 311.37348552 8.85336939 311.28610474 9.66974634 C310.88398775 12.94489163 310.2156829 16.13348056 309.50952148 19.35571289 C309.3630719 20.0300235 309.21662231 20.70433411 309.06573486 21.39907837 C308.58851971 23.59124298 308.10488199 25.78193381 307.62109375 27.97265625 C307.28581833 29.50670259 306.9509505 31.04083805 306.61647034 32.57505798 C305.74100272 36.58552156 304.86005313 40.59476107 303.97790527 44.60375977 C303.07631783 48.70580952 302.17999082 52.80900815 301.28320312 56.91210938 C299.52724374 64.94253149 297.7654837 72.97166645 296 81 C251.36898171 82.01591655 206.7563852 82.12799772 162.11593556 82.07202661 C152.80171043 82.06056417 143.48748428 82.05528061 134.17325377 82.05032361 C115.1154945 82.04005247 96.05774844 82.0226299 77 82 C76.88859145 82.70392443 76.7771829 83.40784885 76.66239834 84.13310432 C75.36638756 92.13267338 73.81176659 100.05908024 72.15844727 107.99169922 C71.87711056 109.35000567 71.59597855 110.70835454 71.31503296 112.06674194 C70.55880971 115.7201853 69.79972494 119.37302856 69.04006314 123.02575827 C68.24040211 126.87320762 67.44335032 130.72119752 66.64598083 134.56912231 C65.30678582 141.02996277 63.96588961 147.49044813 62.6237793 153.95068359 C60.73986731 163.01889918 58.85917291 172.08777987 56.97906029 181.15678382 C55.66705043 187.48484966 54.35426877 193.81275543 53.0413425 200.1406312 C52.72562888 201.66228017 52.40993538 203.18393333 52.09426236 204.70559072 C51.19287578 209.05045031 50.29099552 213.39520687 49.38837814 217.73981094 C48.98910486 219.66209286 48.59025314 221.58446233 48.19142151 223.50683594 C46.49295569 231.67826156 44.75760061 239.84109554 43 248 C43.9572529 247.9975808 44.91450581 247.99516161 45.90076637 247.99266911 C57.45466564 247.96396981 69.00857012 247.94759791 80.5625 247.9375 C81.53461552 247.93664398 82.50673103 247.93578796 83.5083046 247.93490601 C123.40324507 247.90408891 163.29428016 248.16854006 203.1875 248.5 C203.90755675 248.50597372 204.6276135 248.51194743 205.36949015 248.51810217 C223.91305204 248.67207517 242.45655483 248.83252521 261 249 C260.27648616 253.64318322 259.54982475 258.28586305 258.82104492 262.92822266 C258.57715341 264.48409838 258.33391528 266.04007678 258.09155273 267.59619141 C254.89789706 288.09278755 251.41047606 308.53714365 248 329 C175.07 329.66 102.14 330.32 27 331 C18.14518293 373.38787159 18.14518293 373.38787159 9.29101562 415.77587891 C6.12000914 430.95559194 2.94630136 446.13473855 -0.22900391 461.31355286 C-0.95188626 464.76994857 -1.67428238 468.22644547 -2.39648438 471.6829834 C-3.37417419 476.36181404 -4.35348833 481.04030075 -5.33454895 485.71842575 C-5.66913575 487.3151425 -6.00312814 488.91198394 -6.33647156 490.50896072 C-6.776701 492.61748925 -7.219076 494.72555525 -7.66210938 496.83349609 C-7.89973999 497.96822357 -8.13737061 499.10295105 -8.38220215 500.27206421 C-9 503 -9 503 -10 506 C63.59 506 137.18 506 213 506 C211.87489743 516.12592312 211.87489743 516.12592312 211.13964844 519.86352539 C210.97551453 520.70708084 210.81138062 521.55063629 210.64227295 522.41975403 C210.46641663 523.30346176 210.2905603 524.18716949 210.109375 525.09765625 C209.92433411 526.04231247 209.73929321 526.98696869 209.54864502 527.96025085 C208.95296107 530.99510955 208.35176871 534.02884248 207.75 537.0625 C207.33970907 539.14287709 206.92955312 541.2232808 206.51953125 543.30371094 C204.38249861 554.12634593 202.23181442 564.94646112 200 575.75 C199.8050293 576.69883057 199.61005859 577.64766113 199.40917969 578.62524414 C198.12406069 584.75187861 198.12406069 584.75187861 197 587 C95.36 587 -6.28 587 -111 587 C-109.66058827 577.62411788 -108.21114227 568.37758787 -106.41577148 559.09326172 C-106.15960427 557.75554693 -105.90373282 556.41777547 -105.64812756 555.07995319 C-105.0984296 552.20627768 -104.54668 549.3330068 -103.99327469 546.46004295 C-103.09879885 541.81637984 -102.20899064 537.17182895 -101.31967163 532.5271759 C-100.03546984 525.82263045 -98.74912739 519.11849885 -97.46133423 512.41464233 C-95.40821918 501.7261202 -93.3600685 491.03664996 -91.31323242 480.34692383 C-91.14144978 479.44978058 -90.96966713 478.55263734 -90.79267895 477.62830794 C-89.92219511 473.08200937 -89.05180579 468.53569272 -88.18148613 463.98936272 C-87.48010285 460.32557314 -86.77856444 456.66181331 -86.07689095 452.9980793 C-79.8576748 420.52436526 -73.6847869 388.04214425 -67.54336166 355.55362701 C-65.28398612 343.60193592 -63.02311033 331.65052854 -60.76171875 319.69921875 C-60.6325114 319.01632656 -60.50330405 318.33343437 -60.37018132 317.62984848 C-52.51012777 276.08858488 -44.60331315 234.55619936 -36.7002449 193.02310228 C-36.12696678 190.01033609 -35.55370048 186.99756765 -34.98043823 183.98479843 C-32.01839986 168.41786835 -29.05632936 152.85094438 -26.09401321 137.28406715 C-19.82813528 104.35706487 -13.56757682 71.42905597 -7.3125 38.5 C-6.91383908 36.40136712 -6.51517779 34.3027343 -6.11651611 32.20410156 C-4.07737142 21.46945914 -2.03857491 10.73475064 0 0 Z " fill="#038E5B" transform="translate(1049,52)"/>
<path d="M0 0 C0.75676025 0.65621338 0.75676025 0.65621338 1.52880859 1.32568359 C41.60024892 36.33495593 63.72733223 91.53562558 73 143 C73 144.32 73 145.64 73 147 C46.27 147 19.54 147 -8 147 C-12.95 133.14 -12.95 133.14 -18 119 C-20.52115867 113.48496542 -22.98969902 108.22075001 -26 103 C-26.56388428 102.01217529 -26.56388428 102.01217529 -27.13916016 101.00439453 C-33.59919445 89.83221078 -41.03182243 79.76530848 -50.328125 70.7578125 C-53 68 -53 68 -53 66 C-53.59167969 65.74089844 -54.18335938 65.48179687 -54.79296875 65.21484375 C-57.16741678 63.9078467 -58.500505 62.56610827 -60.3125 60.5625 C-81.55989491 38.88308781 -112.22804981 26.20044075 -142.46859741 25.81019592 C-143.23563995 25.80580002 -144.0026825 25.80140411 -144.79296875 25.796875 C-145.61302399 25.78986069 -146.43307922 25.78284637 -147.27798462 25.77561951 C-149.91454606 25.75818824 -152.55088303 25.75176607 -155.1875 25.75 C-156.08705414 25.74932526 -156.98660828 25.74865051 -157.91342163 25.74795532 C-171.1476458 25.76375165 -184.03470549 26.09131818 -197 29 C-197.8058252 29.17692383 -198.61165039 29.35384766 -199.44189453 29.53613281 C-243.62128397 39.53022013 -281.89725618 69.27142812 -309 105 C-309.93860897 106.20978527 -310.87742581 107.41940928 -311.81640625 108.62890625 C-353.88171137 163.283247 -374.20374943 229.0459493 -374.25 297.75 C-374.25067474 298.65462982 -374.25134949 299.55925964 -374.25204468 300.49130249 C-374.19835508 345.9583594 -362.94079319 387.79134733 -333 423 C-331.78376953 424.43666016 -331.78376953 424.43666016 -330.54296875 425.90234375 C-307.77983712 452.0983811 -272.55891182 469.26116004 -238 472 C-184.80167753 474.27049691 -138.21097415 457.26294671 -98.96166992 421.45166016 C-91.21075066 414.31210281 -83.85332642 407.01272374 -77 399 C-75.54082712 397.29481606 -74.0815007 395.58976432 -72.62182617 393.88500977 C-71.61821992 392.71201451 -70.61569088 391.53809631 -69.61450195 390.36303711 C-68.65001885 389.23373215 -67.66986527 388.11761314 -66.6741333 387.01576233 C-64.93866287 385.03336406 -64.93866287 385.03336406 -63.63792419 382.70471191 C-61.36002526 379.31237892 -59.18555955 376.57098178 -55.08023262 375.49845695 C-49.14406934 374.70529162 -43.15847337 374.96910251 -37.1875 375.12109375 C-35.24840253 375.13789658 -33.30926665 375.15069984 -31.37011719 375.15968323 C-26.28591941 375.19391648 -21.20406533 375.2822059 -16.12078857 375.38201904 C-10.92590029 375.47437306 -5.73063024 375.51525198 -0.53515625 375.56054688 C9.64425444 375.65683841 19.82193174 375.81027975 30 376 C28.87602593 382.09287197 26.17352154 386.973445 23.3125 392.4375 C22.73306641 393.54480469 22.15363281 394.65210938 21.55664062 395.79296875 C3.05626042 430.60786254 -23.1210295 465.18841166 -54.2734375 489.83203125 C-57.14085793 492.11200022 -59.90804121 494.48886085 -62.6875 496.875 C-112.48447831 538.29790366 -171.37923029 554.1916164 -234.97680664 554.18530273 C-237.43328027 554.18749623 -239.88930761 554.20578361 -242.34570312 554.22460938 C-257.03404078 554.27759794 -271.89780821 553.51846436 -286.1875 549.875 C-287.04077881 549.66327148 -287.89405762 549.45154297 -288.77319336 549.23339844 C-318.40303826 541.62324049 -345.15929137 530.54426171 -368 510 C-368.55075195 509.50564453 -369.10150391 509.01128906 -369.66894531 508.50195312 C-379.63048706 499.51748657 -389.3843076 490.30244983 -398 480 C-398.46809082 479.45102051 -398.93618164 478.90204102 -399.41845703 478.33642578 C-406.83651692 469.61615027 -413.44141488 460.83876736 -418.99121094 450.81494141 C-419.96354321 449.06559045 -420.96946943 447.33504163 -421.9765625 445.60546875 C-464.34723248 370.40174973 -460.1089197 276.70208822 -438.11303711 195.92724609 C-417.31254237 122.45991923 -374.15367314 48.48858928 -313 1 C-312.21753906 0.32710937 -311.43507813 -0.34578125 -310.62890625 -1.0390625 C-240.70078043 -61.03979448 -133.6435171 -74.26033628 0 0 Z " fill="#048F5C" transform="translate(506,94)"/>
<path d="M0 0 C9.41131381 0.00799256 18.82262578 0.01343019 28.23394215 0.01709497 C28.90669542 0.01735769 29.57944868 0.01762042 30.27258841 0.0178911 C33.65105408 0.01919711 37.02951976 0.02046059 40.40798545 0.021703 C67.98042887 0.03189668 95.55286372 0.04942827 123.12529957 0.07202661 C122.50474179 5.16470029 121.7837045 10.15595686 120.77422535 15.19067895 C120.64234822 15.85187738 120.51047108 16.5130758 120.37459767 17.19431055 C119.94346676 19.34958932 119.50760659 21.503867 119.07061207 23.65796411 C118.92081772 24.39834547 118.77102337 25.13872682 118.6166898 25.90154397 C117.82585263 29.80791865 117.03106439 33.71346621 116.23320973 37.61841333 C115.41007936 41.65148644 114.60150625 45.68733955 113.79600155 49.7239641 C113.17281312 52.8328235 112.53868812 55.9393782 111.90154088 59.04540384 C111.5983574 60.53333639 111.29937569 62.02213148 111.0046674 63.51176584 C110.59309321 65.58699219 110.16611367 67.65846548 109.73516285 69.72974145 C109.4961324 70.90918329 109.25710194 72.08862512 109.01082814 73.30380762 C108.12529957 76.07202661 108.12529957 76.07202661 105.12529957 78.07202661 C102.14602196 78.33373964 102.14602196 78.33373964 98.41694081 78.35049951 C97.73080077 78.35629191 97.04466072 78.36208431 96.33772856 78.36805224 C94.03127595 78.38509529 91.72502303 78.387933 89.41851246 78.39087427 C87.76533975 78.40017325 86.11217173 78.41034187 84.45900929 78.42131555 C79.95018808 78.44872958 75.44139842 78.46381456 70.9325155 78.47674358 C66.17377882 78.49243311 61.41510442 78.51923695 56.65641224 78.54477441 C48.62026298 78.58636986 40.58410997 78.62080234 32.54790699 78.65015161 C21.37912054 78.69094311 10.21041747 78.74371962 -0.95830321 78.79943144 C-38.59733844 78.98560344 -76.23516745 79.09837467 -113.87470043 79.07202661 C-113.93183914 79.63868742 -113.98897786 80.20534823 -114.04784805 80.78918058 C-114.55968039 85.65292092 -115.23814755 90.42401566 -116.17183483 95.22853601 C-116.36254306 96.21776559 -116.36254306 96.21776559 -116.55710399 97.22697961 C-116.97931426 99.41241182 -117.4066141 101.59681576 -117.83392894 103.78125513 C-118.14473943 105.38426077 -118.45523355 106.98732779 -118.76543891 108.59045064 C-119.59302578 112.86272928 -120.42490958 117.13416029 -121.25771892 121.40542352 C-122.04006087 125.42137012 -122.81848074 129.43807305 -123.59723461 133.45471704 C-125.87330587 145.18208119 -128.15563105 156.90823088 -130.43720043 168.63452661 C-135.53157543 194.84890161 -140.62595043 221.06327661 -145.87470043 248.07202661 C-72.94470043 248.07202661 -0.01470043 248.07202661 75.12529957 248.07202661 C73.03548612 275.23960148 68.08969564 302.11413336 64.12529957 329.07202661 C-9.46470043 329.07202661 -83.05470043 329.07202661 -158.87470043 329.07202661 C-159.20470043 332.37202661 -159.53470043 335.67202661 -159.87470043 339.07202661 C-160.21161434 341.10951413 -160.58180512 343.1420544 -160.99928844 345.16457117 C-161.22414361 346.26640552 -161.44899879 347.36823987 -161.68066776 348.50346315 C-161.92621465 349.68052513 -162.17176155 350.8575871 -162.42474926 352.07031763 C-162.81624251 353.97750102 -162.81624251 353.97750102 -163.21564472 355.92321336 C-163.93155054 359.41016053 -164.6537045 362.89578718 -165.37697852 366.38121235 C-166.14956922 370.10987398 -166.9162733 373.83974616 -167.68367565 377.56947839 C-168.99689032 383.94798311 -170.31373964 390.32572823 -171.63318431 396.70294702 C-173.51752722 405.81048601 -175.39628993 414.9191688 -177.27357566 424.02816474 C-180.17847581 438.12280332 -183.08735309 452.21661714 -185.99921215 466.30981958 C-189.44363037 482.98073585 -192.88156921 499.65297813 -196.31610668 516.32593286 C-197.25576301 520.88705783 -198.19546671 525.44817304 -199.13519847 530.00928247 C-199.35573044 531.0796805 -199.57626241 532.15007854 -199.80347717 533.25291288 C-203.15660931 549.52676382 -206.51535075 565.79945816 -209.87470043 582.07202661 C-229.49183147 582.88578906 -249.05209186 583.20321256 -268.68720043 583.13452661 C-271.25295474 583.12948903 -273.81871003 583.12493021 -276.38446605 583.12085474 C-282.54789977 583.11005672 -288.71129513 583.09350664 -294.87470043 583.07202661 C-294.23547999 574.45098294 -292.64119121 566.07259226 -290.98026073 557.60407388 C-290.44665424 554.88314733 -289.91861284 552.16118723 -289.39179027 549.43893945 C-288.6154683 545.42998118 -287.83693208 541.42146197 -287.05679882 537.41324365 C-284.8657401 526.14890657 -282.69782699 514.88009887 -280.53095043 503.61108911 C-280.18558396 501.81543858 -280.18558396 501.81543858 -279.83324039 499.98351228 C-274.38435862 471.6373809 -269.08329189 443.26418075 -263.81220043 414.88452661 C-263.56853155 413.57308879 -263.32485119 412.26165309 -263.08115947 410.95021951 C-256.3823483 374.89909722 -249.72207109 338.84086576 -243.06847465 302.78137529 C-240.12677576 286.83889177 -237.18462431 270.89649176 -234.24220073 254.95414197 C-233.68784921 251.95054188 -233.13353686 248.94693455 -232.57922924 245.94332635 C-223.41397941 196.28155201 -214.22063124 146.62588991 -204.81220043 97.00952661 C-204.5042473 95.38531919 -204.5042473 95.38531919 -204.19007289 93.7282995 C-201.9716424 82.03106985 -199.74543144 70.33534623 -197.51009452 58.64133584 C-196.33485304 52.49047623 -195.16576244 46.3384709 -193.99960411 40.18588293 C-193.16323334 35.77549896 -192.32445724 31.36557439 -191.48526752 26.95572603 C-191.0837881 24.84311231 -190.68332482 22.7303052 -190.28392398 20.61729753 C-189.73431044 17.71048611 -189.18104242 14.80439311 -188.62689769 11.89844263 C-188.46360784 11.02991977 -188.30031799 10.16139692 -188.13207996 9.26655519 C-186.98869637 3.3000185 -186.98869637 3.3000185 -185.87470043 1.07202661 C-123.91715662 -0.03025259 -61.96572442 -0.05361006 0 0 Z " fill="#038E5B" transform="translate(867.8747004270554,51.92797338962555)"/>
<path d="M0 0 C0.66 0.33 1.32 0.66 2 1 C-9.88 12.88 -21.76 24.76 -34 37 C-34.66 36.67 -35.32 36.34 -36 36 C-29.78334335 29.04577392 -23.39895253 22.29248851 -16.8125 15.6875 C-16.16023438 15.03072266 -15.50796875 14.37394531 -14.8359375 13.69726562 C-10.88045168 9.75371789 -6.80548101 6.00352451 -2.57299805 2.35864258 C-1.69247719 1.59811199 -0.82271616 0.82271616 0 0 Z " fill="#59A98C" transform="translate(162,75)"/>
</svg>
