<svg version="1.1" id="Layer_1" xmlns="http://www.w3.org/2000/svg" xmlns:xlink="http://www.w3.org/1999/xlink" x="0px" y="0px"
	 width="100%" viewBox="0 0 1425 723" enable-background="new 0 0 1425 723" xml:space="preserve">
<path fill="#000000" opacity="1.000000" stroke="none" 
	d="
M387.000000,0.999999 
	C733.299805,1.000000 1079.599609,1.000000 1425.949707,1.000000 
	C1425.949707,241.943100 1425.949707,482.886230 1425.949707,723.914673 
	C951.102905,723.914673 476.205811,723.914673 1.154343,723.914673 
	C1.154343,483.000061 1.154343,242.000046 1.154343,1.000000 
	C112.443527,1.000000 223.765808,1.000000 335.599854,1.417463 
	C331.144867,2.579484 326.169281,3.269509 321.212830,4.077175 
	C279.516541,10.871683 240.243652,24.117311 204.388763,46.984051 
	C167.983490,70.201813 136.926254,99.144432 110.474861,133.123840 
	C90.785744,158.416428 74.627449,185.888596 61.529476,215.101913 
	C47.770061,245.790466 38.185215,277.857208 30.998419,310.683929 
	C24.560181,340.091522 21.113617,369.858917 20.089287,399.901825 
	C19.795544,408.517090 20.215950,417.204742 20.989573,425.797943 
	C22.446766,441.984039 23.381319,458.314362 26.337852,474.249878 
	C34.848385,520.121155 52.100147,562.355591 81.797272,598.871033 
	C101.168266,622.689453 123.953613,642.568848 150.891830,657.544434 
	C183.787216,675.831604 219.624481,683.362488 256.653351,685.854919 
	C282.142365,687.570618 307.532013,685.220032 332.702057,680.929077 
	C362.194702,675.901184 390.277618,666.512817 416.563538,652.239075 
	C437.890045,640.658264 457.871735,626.956970 475.353790,610.026367 
	C488.203369,597.582092 501.028961,585.010925 512.738220,571.518250 
	C525.897034,556.355286 537.778198,540.084290 550.240845,524.315552 
	C553.117920,520.675232 556.099365,517.117371 559.032837,513.521545 
	C559.239197,513.697571 559.445557,513.873535 559.651917,514.049561 
	C549.654602,568.457520 539.657349,622.865479 529.546448,677.892029 
	C532.583923,678.078186 534.687378,678.307434 536.792297,678.320984 
	C568.122314,678.521912 599.452454,678.715698 630.782837,678.864990 
	C649.115051,678.952332 667.448120,678.907227 685.779846,679.045837 
	C689.124451,679.071167 690.944885,678.362183 691.347168,674.512573 
	C691.807922,670.103760 693.265442,665.806824 694.156067,661.433960 
	C699.254089,636.403076 704.239319,611.348938 709.404114,586.331848 
	C714.895386,559.733887 720.581299,533.176086 726.113220,506.586395 
	C731.446838,480.949615 736.821838,455.319885 741.856995,429.624023 
	C742.762756,425.001617 744.660522,423.930084 749.083923,423.939697 
	C812.414978,424.077209 875.746460,424.033661 939.077820,424.033691 
	C940.876709,424.033691 942.675598,424.033691 945.101624,424.033691 
	C929.417358,510.772766 913.852417,596.852051 898.138428,683.755371 
	C901.232910,683.755371 903.349426,683.759277 905.465881,683.754761 
	C954.796387,683.648987 1004.126892,683.528137 1053.457397,683.439209 
	C1126.620728,683.307190 1199.784058,683.155151 1272.947388,683.182251 
	C1277.448853,683.183899 1279.197632,681.983521 1280.111206,677.447327 
	C1288.494507,635.819702 1297.150391,594.247009 1305.709229,552.654724 
	C1307.846680,542.268250 1309.920410,531.868591 1312.188965,520.656860 
	C1239.461304,520.656860 1167.422852,520.656860 1094.937012,520.656860 
	C1095.111938,518.455322 1095.099121,516.978027 1095.361816,515.551392 
	C1100.700073,486.563202 1106.055054,457.578064 1111.444092,428.599243 
	C1112.750000,421.577637 1112.811279,421.575256 1119.948608,421.574860 
	C1188.613159,421.570953 1257.277710,421.572144 1325.942261,421.571808 
	C1328.416138,421.571777 1330.889893,421.571777 1333.860474,421.571777 
	C1341.979614,368.304260 1350.024414,315.524017 1358.247925,261.571350 
	C1286.141602,260.849518 1214.680664,260.134125 1142.982056,259.416382 
	C1143.192139,257.202881 1143.212524,256.037659 1143.423096,254.907837 
	C1148.061646,230.023315 1152.704346,205.139557 1157.386597,180.263260 
	C1158.844238,172.519577 1158.898193,172.497711 1166.825684,172.447571 
	C1234.480835,172.019669 1302.136108,171.605820 1369.791260,171.183380 
	C1378.986572,171.125977 1377.171387,171.786041 1378.847656,163.636292 
	C1386.530273,126.284691 1394.049316,88.899391 1401.603149,51.521366 
	C1404.097656,39.178116 1406.520508,26.820347 1409.136353,13.663123 
	C1405.698242,13.663123 1402.910889,13.663123 1400.123413,13.663123 
	C1153.964355,13.663121 907.805420,13.663112 661.646423,13.663344 
	C660.313110,13.663345 658.965332,13.794202 657.649292,13.644398 
	C653.909546,13.218711 652.562744,14.823648 651.884338,18.555222 
	C645.831604,51.848423 639.530090,85.096344 633.327026,118.362289 
	C628.525208,144.113525 623.770081,169.873489 618.971924,195.625427 
	C617.305847,204.567169 615.572632,213.496399 613.870117,222.431335 
	C612.119019,218.022507 611.109680,213.679260 610.133911,209.328506 
	C604.169617,182.735611 594.456421,157.526169 581.268921,133.741333 
	C571.574524,116.256531 560.760376,99.409348 546.591064,85.100494 
	C535.998291,74.403366 525.572693,63.418747 514.034119,53.809151 
	C497.243347,39.825428 478.336243,29.030077 458.132782,20.480558 
	C435.978241,11.105412 413.089813,4.899250 389.113861,2.724885 
	C388.363251,2.656815 387.702606,1.597304 387.000000,0.999999 
z"/>
<path fill="#008D59" opacity="1.000000" stroke="none" 
	d="
M386.531342,0.999999 
	C387.702606,1.597304 388.363251,2.656815 389.113861,2.724885 
	C413.089813,4.899250 435.978241,11.105412 458.132782,20.480558 
	C478.336243,29.030077 497.243347,39.825428 514.034119,53.809151 
	C525.572693,63.418747 535.998291,74.403366 546.591064,85.100494 
	C560.760376,99.409348 571.574524,116.256531 581.268921,133.741333 
	C594.456421,157.526169 604.169617,182.735611 610.133911,209.328506 
	C611.109680,213.679260 612.119019,218.022507 613.870117,222.431335 
	C615.572632,213.496399 617.305847,204.567169 618.971924,195.625427 
	C623.770081,169.873489 628.525208,144.113525 633.327026,118.362289 
	C639.530090,85.096344 645.831604,51.848423 651.884338,18.555222 
	C652.562744,14.823648 653.909546,13.218711 657.649292,13.644398 
	C658.965332,13.794202 660.313110,13.663345 661.646423,13.663344 
	C907.805420,13.663112 1153.964355,13.663121 1400.123413,13.663123 
	C1402.910889,13.663123 1405.698242,13.663123 1409.136353,13.663123 
	C1406.520508,26.820347 1404.097656,39.178116 1401.603149,51.521366 
	C1394.049316,88.899391 1386.530273,126.284691 1378.847656,163.636292 
	C1377.171387,171.786041 1378.986572,171.125977 1369.791260,171.183380 
	C1302.136108,171.605820 1234.480835,172.019669 1166.825684,172.447571 
	C1158.898193,172.497711 1158.844238,172.519577 1157.386597,180.263260 
	C1152.704346,205.139557 1148.061646,230.023315 1143.423096,254.907837 
	C1143.212524,256.037659 1143.192139,257.202881 1142.982056,259.416382 
	C1214.680664,260.134125 1286.141602,260.849518 1358.247925,261.571350 
	C1350.024414,315.524017 1341.979614,368.304260 1333.860474,421.571777 
	C1330.889893,421.571777 1328.416138,421.571777 1325.942261,421.571808 
	C1257.277710,421.572144 1188.613159,421.570953 1119.948608,421.574860 
	C1112.811279,421.575256 1112.750000,421.577637 1111.444092,428.599243 
	C1106.055054,457.578064 1100.700073,486.563202 1095.361816,515.551392 
	C1095.099121,516.978027 1095.111938,518.455322 1094.937012,520.656860 
	C1167.422852,520.656860 1239.461304,520.656860 1312.188965,520.656860 
	C1309.920410,531.868591 1307.846680,542.268250 1305.709229,552.654724 
	C1297.150391,594.247009 1288.494507,635.819702 1280.111206,677.447327 
	C1279.197632,681.983521 1277.448853,683.183899 1272.947388,683.182251 
	C1199.784058,683.155151 1126.620728,683.307190 1053.457397,683.439209 
	C1004.126892,683.528137 954.796387,683.648987 905.465881,683.754761 
	C903.349426,683.759277 901.232910,683.755371 898.138428,683.755371 
	C913.852417,596.852051 929.417358,510.772766 945.101624,424.033691 
	C942.675598,424.033691 940.876709,424.033691 939.077820,424.033691 
	C875.746460,424.033661 812.414978,424.077209 749.083923,423.939697 
	C744.660522,423.930084 742.762756,425.001617 741.856995,429.624023 
	C736.821838,455.319885 731.446838,480.949615 726.113220,506.586395 
	C720.581299,533.176086 714.895386,559.733887 709.404114,586.331848 
	C704.239319,611.348938 699.254089,636.403076 694.156067,661.433960 
	C693.265442,665.806824 691.807922,670.103760 691.347168,674.512573 
	C690.944885,678.362183 689.124451,679.071167 685.779846,679.045837 
	C667.448120,678.907227 649.115051,678.952332 630.782837,678.864990 
	C599.452454,678.715698 568.122314,678.521912 536.792297,678.320984 
	C534.687378,678.307434 532.583923,678.078186 529.546448,677.892029 
	C539.657349,622.865479 549.654602,568.457520 559.651917,514.049561 
	C559.445557,513.873535 559.239197,513.697571 559.032837,513.521545 
	C556.099365,517.117371 553.117920,520.675232 550.240845,524.315552 
	C537.778198,540.084290 525.897034,556.355286 512.738220,571.518250 
	C501.028961,585.010925 488.203369,597.582092 475.353790,610.026367 
	C457.871735,626.956970 437.890045,640.658264 416.563538,652.239075 
	C390.277618,666.512817 362.194702,675.901184 332.702057,680.929077 
	C307.532013,685.220032 282.142365,687.570618 256.653351,685.854919 
	C219.624481,683.362488 183.787216,675.831604 150.891830,657.544434 
	C123.953613,642.568848 101.168266,622.689453 81.797272,598.871033 
	C52.100147,562.355591 34.848385,520.121155 26.337852,474.249878 
	C23.381319,458.314362 22.446766,441.984039 20.989573,425.797943 
	C20.215950,417.204742 19.795544,408.517090 20.089287,399.901825 
	C21.113617,369.858917 24.560181,340.091522 30.998419,310.683929 
	C38.185215,277.857208 47.770061,245.790466 61.529476,215.101913 
	C74.627449,185.888596 90.785744,158.416428 110.474861,133.123840 
	C136.926254,99.144432 167.983490,70.201813 204.388763,46.984051 
	C240.243652,24.117311 279.516541,10.871683 321.212830,4.077175 
	C326.169281,3.269509 331.144867,2.579484 336.055786,1.417463 
	C352.687561,1.000000 369.375122,1.000000 386.531342,0.999999 
M790.072693,172.832260 
	C789.712708,174.438385 789.297180,176.034363 789.001587,177.652237 
	C786.781128,189.806335 784.566589,201.961548 782.384644,214.122604 
	C779.718018,228.985077 777.084900,243.853561 774.351257,259.202087 
	C776.945862,259.337891 779.064331,259.538544 781.183472,259.546448 
	C821.999390,259.698944 862.815308,259.841278 903.631348,259.958344 
	C925.955627,260.022369 948.279968,260.038208 970.604309,260.068634 
	C973.103577,260.072052 975.531555,260.395416 976.179626,256.744568 
	C979.024353,240.720139 982.095581,224.736023 985.045105,208.729996 
	C987.302673,196.479004 989.501099,184.217102 991.855103,171.247559 
	C924.534180,171.247559 857.787964,171.247559 790.584900,171.260147 
	C790.266541,171.420120 790.139282,171.675385 790.072693,172.832260 
M202.000824,496.496429 
	C205.565277,499.727966 208.828125,503.398132 212.757050,506.099609 
	C220.900375,511.698730 229.137131,517.263367 237.810165,521.966858 
	C250.847733,529.037292 265.565765,529.321411 279.830017,529.725830 
	C291.330750,530.051880 303.066284,528.879150 314.405273,526.786865 
	C342.550720,521.593506 366.617828,507.969330 387.667053,488.819183 
	C405.212769,472.856445 419.764679,454.470673 431.597687,433.940338 
	C433.731201,430.238617 436.367706,428.890411 440.795197,428.912170 
	C481.627472,429.113068 522.461121,429.030609 563.294373,429.030548 
	C574.804626,429.030548 574.953735,429.059540 577.170288,417.675293 
	C580.591003,400.106110 583.802246,382.496033 587.068176,364.896942 
	C590.034058,348.914429 592.996704,332.931061 595.880554,316.933594 
	C597.856506,305.972778 599.695068,294.987152 601.745911,283.141052 
	C558.333862,283.141052 515.444641,283.141052 472.390839,283.141052 
	C470.778564,274.487244 469.903290,266.414825 467.731110,258.708008 
	C457.736389,223.246445 438.917419,193.786972 407.176483,173.963150 
	C392.380554,164.722321 375.921295,159.667267 358.252502,160.076782 
	C347.515564,160.325623 336.759033,160.946732 326.076141,162.036194 
	C308.704712,163.807816 292.064728,168.572403 276.389435,176.291687 
	C260.546936,184.093323 247.952545,196.050949 235.743561,208.554749 
	C216.858475,227.895874 200.510040,248.890289 189.499207,273.840637 
	C175.344513,305.914917 167.344269,339.492584 165.170929,374.335052 
	C163.753067,397.065948 165.463318,419.709290 171.498108,441.897064 
	C177.084915,462.437775 186.456604,480.756165 202.000824,496.496429 
M963.136475,424.657104 
	C948.580444,503.484436 934.024414,582.311768 919.330872,661.883789 
	C922.091797,661.883789 923.718079,661.888977 925.344299,661.882996 
	C1036.164062,661.478027 1146.983765,661.052734 1257.803833,660.741455 
	C1261.979858,660.729736 1263.901245,659.728210 1264.734497,655.252075 
	C1271.559937,618.582336 1278.669189,581.965332 1285.660522,545.326294 
	C1285.928589,543.920898 1285.872070,542.453552 1286.016235,540.266846 
	C1214.165649,540.266846 1142.834961,540.266846 1071.611328,540.266846 
	C1071.452759,539.229187 1071.309937,538.890503 1071.368164,538.590820 
	C1079.842041,494.945831 1088.373169,451.311890 1096.735352,407.645599 
	C1097.394653,404.203247 1099.192627,403.959595 1101.937500,403.971527 
	C1116.935913,404.036835 1131.934692,404.001007 1146.933350,404.000885 
	C1201.928345,404.000488 1256.923340,403.948486 1311.917969,404.097198 
	C1316.404297,404.109314 1317.843262,402.835876 1318.208984,398.336304 
	C1318.868774,390.218750 1320.215454,382.142975 1321.563232,374.098053 
	C1325.469849,350.780945 1329.714722,327.518677 1333.406128,304.168396 
	C1334.688477,296.056335 1334.739502,287.749634 1335.409668,278.769287 
	C1263.089966,278.769287 1191.890625,278.769287 1120.359375,278.769287 
	C1120.656982,276.413635 1120.779297,274.772491 1121.079834,273.164673 
	C1128.181396,235.190079 1135.413086,197.239136 1142.293213,159.224533 
	C1143.264893,153.855438 1145.370850,152.344131 1150.675537,152.324936 
	C1219.166138,152.077438 1287.655762,151.556747 1356.146362,151.291016 
	C1360.968018,151.272308 1363.022949,150.037216 1363.961670,145.043701 
	C1369.345337,116.406021 1375.118774,87.841698 1380.734253,59.247387 
	C1382.327026,51.136402 1383.833008,43.008377 1385.481079,34.350899 
	C1382.872925,34.235428 1381.081421,34.087791 1379.289917,34.086555 
	C1266.633911,34.008904 1153.977783,33.975483 1041.322144,33.762585 
	C1036.637451,33.753731 1035.127197,35.277229 1034.323242,39.663448 
	C1020.632507,114.353287 1006.796875,189.016571 992.976440,263.682617 
	C983.096130,317.061432 973.191040,370.435669 963.136475,424.657104 
M72.977577,228.499359 
	C67.024689,244.589081 60.394871,260.466187 55.260296,276.812927 
	C44.683983,310.484314 39.387825,345.223816 37.151268,380.369080 
	C36.237076,394.734741 36.544117,409.217682 37.039940,423.621613 
	C37.471584,436.161072 38.466862,448.726593 40.065201,461.171204 
	C43.675869,489.283752 52.327332,515.987427 64.816299,541.346741 
	C79.336449,570.830383 99.186935,596.232788 124.625839,617.237427 
	C142.242966,631.783630 161.571167,643.262085 182.623947,652.117310 
	C209.527618,663.433472 237.884140,666.056274 266.546753,666.908630 
	C275.824768,667.184387 285.158936,666.692871 294.424896,665.990906 
	C308.425323,664.930298 322.509735,664.124207 336.342072,661.877625 
	C364.647522,657.280273 391.001770,646.666382 415.732880,632.459290 
	C445.003845,615.644226 471.305786,594.877380 493.332336,569.115967 
	C503.099640,557.692505 512.550598,545.962097 521.548584,533.925110 
	C538.177551,511.679810 549.858643,486.571503 562.064514,461.803253 
	C563.965759,457.945221 565.109924,453.714020 566.676819,449.458099 
	C565.283813,449.225342 564.796509,449.072754 564.309021,449.072510 
	C524.644836,449.052307 484.980530,449.013153 445.316833,449.148468 
	C443.747284,449.153809 441.725647,450.467285 440.688385,451.781738 
	C431.268005,463.720184 422.366486,476.083160 412.640594,487.761841 
	C397.859558,505.510590 380.420868,520.216248 358.974731,529.307434 
	C346.083313,534.772217 332.971954,540.117859 319.470154,543.642822 
	C302.341156,548.114807 284.713959,550.990356 266.840515,547.941528 
	C258.436646,546.507996 249.862106,545.370361 241.803467,542.749939 
	C217.588226,534.875854 198.493393,519.609009 182.496597,500.080505 
	C162.282394,475.403534 152.485748,446.618927 150.256805,415.343018 
	C149.163559,400.002625 150.076614,384.424042 151.256195,369.043365 
	C152.461853,353.322968 154.295364,337.555328 157.302811,322.090118 
	C162.238358,296.709991 171.229980,272.525391 184.136047,250.137177 
	C199.571808,223.360641 218.392349,199.124771 241.786392,178.599731 
	C254.374512,167.555450 268.364166,159.314682 284.189423,153.837708 
	C309.164307,145.194138 334.734711,140.182373 361.154358,142.220642 
	C372.884735,143.125641 384.829163,145.200867 395.981659,148.861557 
	C422.171234,157.458023 441.235840,175.723480 457.186951,197.544830 
	C470.272766,215.446396 478.177673,235.730530 483.988251,256.905914 
	C485.221130,261.398743 487.379486,262.890503 492.053955,262.770569 
	C509.488678,262.323181 526.934143,262.258453 544.376160,262.141907 
	C560.541016,262.033905 576.706787,262.040833 592.872131,262.001923 
	C600.071777,261.984589 601.182373,261.006134 599.950806,253.883408 
	C597.960999,242.375565 596.098816,230.797684 593.167969,219.512939 
	C589.677490,206.073608 585.532288,192.766403 580.935425,179.659866 
	C569.967468,148.388123 554.059814,119.763397 532.161987,94.836128 
	C514.277466,74.477402 492.966583,58.312744 468.993073,45.427372 
	C436.467468,27.945372 401.843506,19.850098 365.115540,20.113266 
	C353.495178,20.196533 341.844666,20.252308 330.268433,21.123983 
	C318.956787,21.975737 307.402435,22.639147 296.514465,25.509106 
	C265.008728,33.813713 235.594330,47.227047 208.332809,65.143799 
	C183.169006,81.681900 159.729462,100.345833 140.166504,123.391258 
	C129.576324,135.866653 119.188156,148.587051 109.682610,161.892578 
	C95.025764,182.408737 83.619896,204.856400 72.977577,228.499359 
M642.133179,172.441574 
	C612.054993,334.277771 581.976807,496.113953 551.725952,658.879028 
	C594.037659,658.879028 635.266541,658.879028 675.979065,658.879028 
	C693.557800,575.024780 711.133240,491.186249 728.803040,406.897552 
	C729.807739,406.849060 731.624390,406.706665 733.442627,406.682373 
	C748.216858,406.484863 762.990967,406.274048 777.765747,406.134247 
	C816.700806,405.765717 855.635986,405.420044 894.571411,405.088013 
	C911.234375,404.945862 927.897766,404.839783 944.561157,404.768158 
	C947.424561,404.755859 949.488525,404.587311 950.136353,400.819672 
	C955.123291,371.818237 960.357849,342.859467 965.500244,313.884735 
	C967.324158,303.608154 969.105469,293.324005 971.024963,282.365662 
	C897.643921,281.850830 824.964478,281.340942 751.671204,280.826721 
	C752.587036,274.892273 753.249329,269.823792 754.163757,264.801239 
	C760.450073,230.270248 766.811890,195.752991 773.097412,161.221863 
	C774.962402,150.976303 774.885986,151.013443 785.674561,151.056076 
	C853.161133,151.322861 920.648071,151.524170 988.133972,151.912979 
	C992.351440,151.937286 993.886169,150.588074 994.665955,146.569656 
	C999.326172,122.553406 1004.229004,98.584259 1009.049438,74.599091 
	C1011.698669,61.417297 1014.345764,48.235077 1017.180908,34.121708 
	C1014.269348,34.121708 1012.008118,34.131298 1009.746948,34.120327 
	C927.930176,33.723335 846.113403,33.337776 764.296753,32.918770 
	C734.469910,32.766022 704.642395,32.618065 674.817932,32.248322 
	C670.149963,32.190456 667.407776,32.974972 666.939941,38.316391 
	C666.509460,43.232082 665.090820,48.056561 664.191284,52.936668 
	C660.168945,74.758125 656.198914,96.589226 652.166504,118.408806 
	C648.889709,136.139343 645.551086,153.858459 642.133179,172.441574 
z"/>
<path fill="#000000" opacity="1.000000" stroke="none" 
	d="
M201.748962,496.245087 
	C186.456604,480.756165 177.084915,462.437775 171.498108,441.897064 
	C165.463318,419.709290 163.753067,397.065948 165.170929,374.335052 
	C167.344269,339.492584 175.344513,305.914917 189.499207,273.840637 
	C200.510040,248.890289 216.858475,227.895874 235.743561,208.554749 
	C247.952545,196.050949 260.546936,184.093323 276.389435,176.291687 
	C292.064728,168.572403 308.704712,163.807816 326.076141,162.036194 
	C336.759033,160.946732 347.515564,160.325623 358.252502,160.076782 
	C375.921295,159.667267 392.380554,164.722321 407.176483,173.963150 
	C438.917419,193.786972 457.736389,223.246445 467.731110,258.708008 
	C469.903290,266.414825 470.778564,274.487244 472.390839,283.141052 
	C515.444641,283.141052 558.333862,283.141052 601.745911,283.141052 
	C599.695068,294.987152 597.856506,305.972778 595.880554,316.933594 
	C592.996704,332.931061 590.034058,348.914429 587.068176,364.896942 
	C583.802246,382.496033 580.591003,400.106110 577.170288,417.675293 
	C574.953735,429.059540 574.804626,429.030548 563.294373,429.030548 
	C522.461121,429.030609 481.627472,429.113068 440.795197,428.912170 
	C436.367706,428.890411 433.731201,430.238617 431.597687,433.940338 
	C419.764679,454.470673 405.212769,472.856445 387.667053,488.819183 
	C366.617828,507.969330 342.550720,521.593506 314.405273,526.786865 
	C303.066284,528.879150 291.330750,530.051880 279.830017,529.725830 
	C265.565765,529.321411 250.847733,529.037292 237.810165,521.966858 
	C229.137131,517.263367 220.900375,511.698730 212.757050,506.099609 
	C208.828125,503.398132 205.565277,499.727966 201.748962,496.245087 
z"/>
<path fill="#000101" opacity="1.000000" stroke="none" 
	d="
M963.216736,424.234528 
	C973.191040,370.435669 983.096130,317.061432 992.976440,263.682617 
	C1006.796875,189.016571 1020.632507,114.353287 1034.323242,39.663448 
	C1035.127197,35.277229 1036.637451,33.753731 1041.322144,33.762585 
	C1153.977783,33.975483 1266.633911,34.008904 1379.289917,34.086555 
	C1381.081421,34.087791 1382.872925,34.235428 1385.481079,34.350899 
	C1383.833008,43.008377 1382.327026,51.136402 1380.734253,59.247387 
	C1375.118774,87.841698 1369.345337,116.406021 1363.961670,145.043701 
	C1363.022949,150.037216 1360.968018,151.272308 1356.146362,151.291016 
	C1287.655762,151.556747 1219.166138,152.077438 1150.675537,152.324936 
	C1145.370850,152.344131 1143.264893,153.855438 1142.293213,159.224533 
	C1135.413086,197.239136 1128.181396,235.190079 1121.079834,273.164673 
	C1120.779297,274.772491 1120.656982,276.413635 1120.359375,278.769287 
	C1191.890625,278.769287 1263.089966,278.769287 1335.409668,278.769287 
	C1334.739502,287.749634 1334.688477,296.056335 1333.406128,304.168396 
	C1329.714722,327.518677 1325.469849,350.780945 1321.563232,374.098053 
	C1320.215454,382.142975 1318.868774,390.218750 1318.208984,398.336304 
	C1317.843262,402.835876 1316.404297,404.109314 1311.917969,404.097198 
	C1256.923340,403.948486 1201.928345,404.000488 1146.933350,404.000885 
	C1131.934692,404.001007 1116.935913,404.036835 1101.937500,403.971527 
	C1099.192627,403.959595 1097.394653,404.203247 1096.735352,407.645599 
	C1088.373169,451.311890 1079.842041,494.945831 1071.368164,538.590820 
	C1071.309937,538.890503 1071.452759,539.229187 1071.611328,540.266846 
	C1142.834961,540.266846 1214.165649,540.266846 1286.016235,540.266846 
	C1285.872070,542.453552 1285.928589,543.920898 1285.660522,545.326294 
	C1278.669189,581.965332 1271.559937,618.582336 1264.734497,655.252075 
	C1263.901245,659.728210 1261.979858,660.729736 1257.803833,660.741455 
	C1146.983765,661.052734 1036.164062,661.478027 925.344299,661.882996 
	C923.718079,661.888977 922.091797,661.883789 919.330872,661.883789 
	C934.024414,582.311768 948.580444,503.484436 963.216736,424.234528 
M1322.499634,55.916100 
	C1312.341187,55.833866 1302.182861,55.731487 1292.024292,55.672951 
	C1251.864624,55.441536 1211.704468,55.270287 1171.545288,54.987759 
	C1133.057617,54.716988 1094.570435,54.359123 1056.083862,53.962414 
	C1052.770020,53.928249 1050.694214,54.229923 1049.919434,58.339283 
	C1034.401489,140.647415 1018.711365,222.923096 1003.070923,305.208160 
	C983.823608,406.469177 964.587280,507.732239 945.354919,608.996094 
	C943.497375,618.776611 941.701599,628.568909 939.781189,638.870483 
	C942.143372,638.992493 943.932922,639.165527 945.722473,639.165771 
	C1044.213501,639.178711 1142.704468,639.153320 1241.195312,639.262207 
	C1245.235596,639.266663 1247.062256,638.233215 1247.861084,634.079773 
	C1251.697388,614.131531 1255.876343,594.249512 1259.832397,574.323914 
	C1260.780151,569.550842 1261.340576,564.700989 1262.176392,559.251831 
	C1259.027710,559.251831 1256.724609,559.248779 1254.421631,559.252258 
	C1184.762573,559.358398 1115.103394,559.469299 1045.444336,559.564758 
	C1039.599487,559.572815 1039.220459,559.097412 1040.362671,553.647766 
	C1051.942505,498.399994 1063.556763,443.159332 1075.045654,387.892639 
	C1075.811890,384.206787 1077.103760,382.711670 1081.176270,382.706177 
	C1111.782227,382.665039 1142.387695,382.322723 1172.993530,382.126404 
	C1212.487793,381.873138 1251.982056,381.613007 1291.476807,381.521606 
	C1295.744019,381.511719 1297.715576,380.424835 1298.191528,375.864014 
	C1298.933350,368.755188 1300.457031,361.729370 1301.605835,354.661255 
	C1304.373901,337.630859 1307.116577,320.596283 1310.114380,302.048157 
	C1237.152100,302.048157 1164.927856,302.048157 1091.983276,302.048157 
	C1092.689697,298.283905 1093.074585,296.026489 1093.539551,293.785706 
	C1104.026367,243.242615 1114.488525,192.694382 1125.048950,142.166687 
	C1126.776855,133.899338 1125.212402,135.040390 1133.847778,134.986740 
	C1202.504639,134.560028 1271.161743,134.166931 1339.819214,133.868851 
	C1343.599609,133.852417 1345.357422,132.877228 1346.176147,128.861069 
	C1349.867432,110.751831 1353.957397,92.724098 1357.868530,74.659370 
	C1359.156372,68.711342 1360.338867,62.740520 1361.746704,55.922195 
	C1348.419434,55.922195 1335.959595,55.922195 1322.499634,55.916100 
z"/>
<path fill="#000101" opacity="1.000000" stroke="none" 
	d="
M73.049591,228.123703 
	C83.619896,204.856400 95.025764,182.408737 109.682610,161.892578 
	C119.188156,148.587051 129.576324,135.866653 140.166504,123.391258 
	C159.729462,100.345833 183.169006,81.681900 208.332809,65.143799 
	C235.594330,47.227047 265.008728,33.813713 296.514465,25.509106 
	C307.402435,22.639147 318.956787,21.975737 330.268433,21.123983 
	C341.844666,20.252308 353.495178,20.196533 365.115540,20.113266 
	C401.843506,19.850098 436.467468,27.945372 468.993073,45.427372 
	C492.966583,58.312744 514.277466,74.477402 532.161987,94.836128 
	C554.059814,119.763397 569.967468,148.388123 580.935425,179.659866 
	C585.532288,192.766403 589.677490,206.073608 593.167969,219.512939 
	C596.098816,230.797684 597.960999,242.375565 599.950806,253.883408 
	C601.182373,261.006134 600.071777,261.984589 592.872131,262.001923 
	C576.706787,262.040833 560.541016,262.033905 544.376160,262.141907 
	C526.934143,262.258453 509.488678,262.323181 492.053955,262.770569 
	C487.379486,262.890503 485.221130,261.398743 483.988251,256.905914 
	C478.177673,235.730530 470.272766,215.446396 457.186951,197.544830 
	C441.235840,175.723480 422.171234,157.458023 395.981659,148.861557 
	C384.829163,145.200867 372.884735,143.125641 361.154358,142.220642 
	C334.734711,140.182373 309.164307,145.194138 284.189423,153.837708 
	C268.364166,159.314682 254.374512,167.555450 241.786392,178.599731 
	C218.392349,199.124771 199.571808,223.360641 184.136047,250.137177 
	C171.229980,272.525391 162.238358,296.709991 157.302811,322.090118 
	C154.295364,337.555328 152.461853,353.322968 151.256195,369.043365 
	C150.076614,384.424042 149.163559,400.002625 150.256805,415.343018 
	C152.485748,446.618927 162.282394,475.403534 182.496597,500.080505 
	C198.493393,519.609009 217.588226,534.875854 241.803467,542.749939 
	C249.862106,545.370361 258.436646,546.507996 266.840515,547.941528 
	C284.713959,550.990356 302.341156,548.114807 319.470154,543.642822 
	C332.971954,540.117859 346.083313,534.772217 358.974731,529.307434 
	C380.420868,520.216248 397.859558,505.510590 412.640594,487.761841 
	C422.366486,476.083160 431.268005,463.720184 440.688385,451.781738 
	C441.725647,450.467285 443.747284,449.153809 445.316833,449.148468 
	C484.980530,449.013153 524.644836,449.052307 564.309021,449.072510 
	C564.796509,449.072754 565.283813,449.225342 566.676819,449.458099 
	C565.109924,453.714020 563.965759,457.945221 562.064514,461.803253 
	C549.858643,486.571503 538.177551,511.679810 521.548584,533.925110 
	C512.550598,545.962097 503.099640,557.692505 493.332336,569.115967 
	C471.305786,594.877380 445.003845,615.644226 415.732880,632.459290 
	C391.001770,646.666382 364.647522,657.280273 336.342072,661.877625 
	C322.509735,664.124207 308.425323,664.930298 294.424896,665.990906 
	C285.158936,666.692871 275.824768,667.184387 266.546753,666.908630 
	C237.884140,666.056274 209.527618,663.433472 182.623947,652.117310 
	C161.571167,643.262085 142.242966,631.783630 124.625839,617.237427 
	C99.186935,596.232788 79.336449,570.830383 64.816299,541.346741 
	C52.327332,515.987427 43.675869,489.283752 40.065201,461.171204 
	C38.466862,448.726593 37.471584,436.161072 37.039940,423.621613 
	C36.544117,409.217682 36.237076,394.734741 37.151268,380.369080 
	C39.387825,345.223816 44.683983,310.484314 55.260296,276.812927 
	C60.394871,260.466187 67.024689,244.589081 73.049591,228.123703 
M429.256134,140.228714 
	C463.048798,164.211975 486.497986,195.654266 497.775665,235.747177 
	C498.998810,240.095490 501.015411,241.387222 505.431976,241.344116 
	C527.929016,241.124496 550.429321,241.249908 572.928467,241.229950 
	C574.880188,241.228226 576.831787,241.047546 579.244568,240.926941 
	C578.939026,238.783112 578.902893,237.114258 578.449829,235.567551 
	C573.305664,218.005859 568.931152,200.161011 562.711060,182.985764 
	C553.433289,157.367722 542.152832,132.368637 523.057129,112.416176 
	C479.770691,67.187561 427.533539,40.812263 363.879883,39.984730 
	C338.686096,39.657192 313.478760,39.871830 288.956573,46.616573 
	C242.764755,59.321480 204.108078,84.728363 170.772903,118.507698 
	C112.447929,177.609833 75.794106,248.068390 61.128593,329.889862 
	C53.161926,374.337311 50.267025,418.911713 59.142628,463.527527 
	C67.623039,506.156799 83.915604,544.998291 113.127762,578.286255 
	C143.109985,612.451843 179.084290,635.290527 223.701462,644.607483 
	C245.497925,649.159058 267.457581,648.572205 289.424164,647.923218 
	C318.190399,647.073303 346.538483,643.737122 373.419525,632.309387 
	C447.708435,600.727356 500.241638,546.869507 535.153625,474.876770 
	C535.494385,474.174103 535.635254,473.374512 535.991394,472.227203 
	C534.370850,472.012543 533.116577,471.701660 531.862305,471.701630 
	C505.863525,471.701111 479.864227,471.674011 453.866974,471.886444 
	C451.880402,471.902679 449.407257,473.197845 448.017242,474.694489 
	C442.463806,480.674011 437.252167,486.970825 431.908661,493.145538 
	C411.221802,517.050537 388.181854,538.199524 359.133636,551.484802 
	C317.861633,570.360535 275.068146,575.776123 231.918121,559.447388 
	C178.682617,539.302185 149.110687,498.093201 136.148010,444.180115 
	C129.663712,417.211304 130.431732,389.599670 132.838867,362.100800 
	C138.232895,300.480042 159.642914,245.241867 199.015030,197.289444 
	C216.556351,175.925339 236.162659,156.733139 259.945557,142.254395 
	C292.396667,122.498543 328.078644,117.518684 365.244843,119.508034 
	C388.158417,120.734489 409.553223,126.708900 429.256134,140.228714 
z"/>
<path fill="#000101" opacity="1.000000" stroke="none" 
	d="
M642.186523,172.012115 
	C645.551086,153.858459 648.889709,136.139343 652.166504,118.408806 
	C656.198914,96.589226 660.168945,74.758125 664.191284,52.936668 
	C665.090820,48.056561 666.509460,43.232082 666.939941,38.316391 
	C667.407776,32.974972 670.149963,32.190456 674.817932,32.248322 
	C704.642395,32.618065 734.469910,32.766022 764.296753,32.918770 
	C846.113403,33.337776 927.930176,33.723335 1009.746948,34.120327 
	C1012.008118,34.131298 1014.269348,34.121708 1017.180908,34.121708 
	C1014.345764,48.235077 1011.698669,61.417297 1009.049438,74.599091 
	C1004.229004,98.584259 999.326172,122.553406 994.665955,146.569656 
	C993.886169,150.588074 992.351440,151.937286 988.133972,151.912979 
	C920.648071,151.524170 853.161133,151.322861 785.674561,151.056076 
	C774.885986,151.013443 774.962402,150.976303 773.097412,161.221863 
	C766.811890,195.752991 760.450073,230.270248 754.163757,264.801239 
	C753.249329,269.823792 752.587036,274.892273 751.671204,280.826721 
	C824.964478,281.340942 897.643921,281.850830 971.024963,282.365662 
	C969.105469,293.324005 967.324158,303.608154 965.500244,313.884735 
	C960.357849,342.859467 955.123291,371.818237 950.136353,400.819672 
	C949.488525,404.587311 947.424561,404.755859 944.561157,404.768158 
	C927.897766,404.839783 911.234375,404.945862 894.571411,405.088013 
	C855.635986,405.420044 816.700806,405.765717 777.765747,406.134247 
	C762.990967,406.274048 748.216858,406.484863 733.442627,406.682373 
	C731.624390,406.706665 729.807739,406.849060 728.803040,406.897552 
	C711.133240,491.186249 693.557800,575.024780 675.979065,658.879028 
	C635.266541,658.879028 594.037659,658.879028 551.725952,658.879028 
	C581.976807,496.113953 612.054993,334.277771 642.186523,172.012115 
M642.712585,270.199219 
	C640.812561,280.346985 638.898682,290.492188 637.014526,300.642883 
	C622.184509,380.536377 607.410583,460.440399 592.508179,540.320374 
	C586.889343,570.438477 581.039185,600.514160 575.128235,630.576477 
	C574.277954,634.900696 575.424316,636.323608 579.759644,636.045776 
	C587.375732,635.557800 595.009521,635.219238 602.640015,635.112915 
	C614.636292,634.945679 626.636108,635.018372 638.634399,634.998535 
	C644.940552,634.988037 651.246765,634.996704 657.609070,634.996704 
	C658.135620,633.060547 658.604370,631.645752 658.902588,630.195923 
	C675.475098,549.627686 692.119995,469.074005 708.409607,388.448608 
	C709.569153,382.709595 711.622742,381.440735 717.021973,381.453339 
	C786.679199,381.615906 856.337036,381.512238 925.994385,381.652985 
	C930.817078,381.662720 932.538147,380.290619 933.180725,375.393341 
	C936.083679,353.269653 939.418213,331.202209 942.656555,309.123199 
	C943.795349,301.358643 943.864075,301.351288 935.935913,301.345276 
	C867.112000,301.293091 798.288025,301.244171 729.464111,301.194580 
	C727.181824,301.192932 724.899536,301.194397 722.603516,301.194397 
	C722.528809,299.987732 722.394836,299.482758 722.483521,299.020508 
	C732.990479,244.240036 743.497986,189.459610 754.153564,134.707993 
	C754.362122,133.636627 756.275208,132.207092 757.470459,132.128967 
	C765.581177,131.598953 773.712158,131.133896 781.837708,131.115112 
	C829.641663,131.004654 877.446289,131.096619 925.250122,130.953125 
	C940.379333,130.907715 955.506592,130.176239 970.635620,130.140396 
	C974.640869,130.130905 976.083435,128.778656 976.830566,125.057716 
	C981.288208,102.855995 985.948242,80.694954 990.502563,58.512508 
	C990.781799,57.152515 990.737610,55.726116 990.887512,53.757576 
	C987.986328,53.757576 985.684265,53.755573 983.382202,53.757870 
	C926.723328,53.814312 870.064392,53.873081 813.405518,53.927422 
	C771.911133,53.967220 730.416504,54.065643 688.922607,53.938976 
	C684.748535,53.926231 683.051208,55.096981 682.448608,59.254642 
	C681.422852,66.332146 679.768860,73.316986 678.443665,80.352966 
	C666.577515,143.353043 654.725586,206.355820 642.712585,270.199219 
z"/>
<path fill="#000000" opacity="1.000000" stroke="none" 
	d="
M791.041748,171.247559 
	C857.787964,171.247559 924.534180,171.247559 991.855103,171.247559 
	C989.501099,184.217102 987.302673,196.479004 985.045105,208.729996 
	C982.095581,224.736023 979.024353,240.720139 976.179626,256.744568 
	C975.531555,260.395416 973.103577,260.072052 970.604309,260.068634 
	C948.279968,260.038208 925.955627,260.022369 903.631348,259.958344 
	C862.815308,259.841278 821.999390,259.698944 781.183472,259.546448 
	C779.064331,259.538544 776.945862,259.337891 774.351257,259.202087 
	C777.084900,243.853561 779.718018,228.985077 782.384644,214.122604 
	C784.566589,201.961548 786.781128,189.806335 789.001587,177.652237 
	C789.297180,176.034363 789.712708,174.438385 790.288818,172.311768 
	C790.703186,171.629089 790.882141,171.447845 791.041748,171.247559 
z"/>
<path fill="#002618" opacity="1.000000" stroke="none" 
	d="
M790.813354,171.253845 
	C790.882141,171.447845 790.703186,171.629089 790.354004,171.908630 
	C790.139282,171.675385 790.266541,171.420120 790.813354,171.253845 
z"/>
<path fill="#008E5A" opacity="1.000000" stroke="none" 
	d="
M1322.999756,55.919147 
	C1335.959595,55.922195 1348.419434,55.922195 1361.746704,55.922195 
	C1360.338867,62.740520 1359.156372,68.711342 1357.868530,74.659370 
	C1353.957397,92.724098 1349.867432,110.751831 1346.176147,128.861069 
	C1345.357422,132.877228 1343.599609,133.852417 1339.819214,133.868851 
	C1271.161743,134.166931 1202.504639,134.560028 1133.847778,134.986740 
	C1125.212402,135.040390 1126.776855,133.899338 1125.048950,142.166687 
	C1114.488525,192.694382 1104.026367,243.242615 1093.539551,293.785706 
	C1093.074585,296.026489 1092.689697,298.283905 1091.983276,302.048157 
	C1164.927856,302.048157 1237.152100,302.048157 1310.114380,302.048157 
	C1307.116577,320.596283 1304.373901,337.630859 1301.605835,354.661255 
	C1300.457031,361.729370 1298.933350,368.755188 1298.191528,375.864014 
	C1297.715576,380.424835 1295.744019,381.511719 1291.476807,381.521606 
	C1251.982056,381.613007 1212.487793,381.873138 1172.993530,382.126404 
	C1142.387695,382.322723 1111.782227,382.665039 1081.176270,382.706177 
	C1077.103760,382.711670 1075.811890,384.206787 1075.045654,387.892639 
	C1063.556763,443.159332 1051.942505,498.399994 1040.362671,553.647766 
	C1039.220459,559.097412 1039.599487,559.572815 1045.444336,559.564758 
	C1115.103394,559.469299 1184.762573,559.358398 1254.421631,559.252258 
	C1256.724609,559.248779 1259.027710,559.251831 1262.176392,559.251831 
	C1261.340576,564.700989 1260.780151,569.550842 1259.832397,574.323914 
	C1255.876343,594.249512 1251.697388,614.131531 1247.861084,634.079773 
	C1247.062256,638.233215 1245.235596,639.266663 1241.195312,639.262207 
	C1142.704468,639.153320 1044.213501,639.178711 945.722473,639.165771 
	C943.932922,639.165527 942.143372,638.992493 939.781189,638.870483 
	C941.701599,628.568909 943.497375,618.776611 945.354919,608.996094 
	C964.587280,507.732239 983.823608,406.469177 1003.070923,305.208160 
	C1018.711365,222.923096 1034.401489,140.647415 1049.919434,58.339283 
	C1050.694214,54.229923 1052.770020,53.928249 1056.083862,53.962414 
	C1094.570435,54.359123 1133.057617,54.716988 1171.545288,54.987759 
	C1211.704468,55.270287 1251.864624,55.441536 1292.024292,55.672951 
	C1302.182861,55.731487 1312.341187,55.833866 1322.999756,55.919147 
z"/>
<path fill="#008E5A" opacity="1.000000" stroke="none" 
	d="
M428.950409,140.041016 
	C409.553223,126.708900 388.158417,120.734489 365.244843,119.508034 
	C328.078644,117.518684 292.396667,122.498543 259.945557,142.254395 
	C236.162659,156.733139 216.556351,175.925339 199.015030,197.289444 
	C159.642914,245.241867 138.232895,300.480042 132.838867,362.100800 
	C130.431732,389.599670 129.663712,417.211304 136.148010,444.180115 
	C149.110687,498.093201 178.682617,539.302185 231.918121,559.447388 
	C275.068146,575.776123 317.861633,570.360535 359.133636,551.484802 
	C388.181854,538.199524 411.221802,517.050537 431.908661,493.145538 
	C437.252167,486.970825 442.463806,480.674011 448.017242,474.694489 
	C449.407257,473.197845 451.880402,471.902679 453.866974,471.886444 
	C479.864227,471.674011 505.863525,471.701111 531.862305,471.701630 
	C533.116577,471.701660 534.370850,472.012543 535.991394,472.227203 
	C535.635254,473.374512 535.494385,474.174103 535.153625,474.876770 
	C500.241638,546.869507 447.708435,600.727356 373.419525,632.309387 
	C346.538483,643.737122 318.190399,647.073303 289.424164,647.923218 
	C267.457581,648.572205 245.497925,649.159058 223.701462,644.607483 
	C179.084290,635.290527 143.109985,612.451843 113.127762,578.286255 
	C83.915604,544.998291 67.623039,506.156799 59.142628,463.527527 
	C50.267025,418.911713 53.161926,374.337311 61.128593,329.889862 
	C75.794106,248.068390 112.447929,177.609833 170.772903,118.507698 
	C204.108078,84.728363 242.764755,59.321480 288.956573,46.616573 
	C313.478760,39.871830 338.686096,39.657192 363.879883,39.984730 
	C427.533539,40.812263 479.770691,67.187561 523.057129,112.416176 
	C542.152832,132.368637 553.433289,157.367722 562.711060,182.985764 
	C568.931152,200.161011 573.305664,218.005859 578.449829,235.567551 
	C578.902893,237.114258 578.939026,238.783112 579.244568,240.926941 
	C576.831787,241.047546 574.880188,241.228226 572.928467,241.229950 
	C550.429321,241.249908 527.929016,241.124496 505.431976,241.344116 
	C501.015411,241.387222 498.998810,240.095490 497.775665,235.747177 
	C486.497986,195.654266 463.048798,164.211975 428.950409,140.041016 
z"/>
<path fill="#008E5A" opacity="1.000000" stroke="none" 
	d="
M642.791016,269.778503 
	C654.725586,206.355820 666.577515,143.353043 678.443665,80.352966 
	C679.768860,73.316986 681.422852,66.332146 682.448608,59.254642 
	C683.051208,55.096981 684.748535,53.926231 688.922607,53.938976 
	C730.416504,54.065643 771.911133,53.967220 813.405518,53.927422 
	C870.064392,53.873081 926.723328,53.814312 983.382202,53.757870 
	C985.684265,53.755573 987.986328,53.757576 990.887512,53.757576 
	C990.737610,55.726116 990.781799,57.152515 990.502563,58.512508 
	C985.948242,80.694954 981.288208,102.855995 976.830566,125.057716 
	C976.083435,128.778656 974.640869,130.130905 970.635620,130.140396 
	C955.506592,130.176239 940.379333,130.907715 925.250122,130.953125 
	C877.446289,131.096619 829.641663,131.004654 781.837708,131.115112 
	C773.712158,131.133896 765.581177,131.598953 757.470459,132.128967 
	C756.275208,132.207092 754.362122,133.636627 754.153564,134.707993 
	C743.497986,189.459610 732.990479,244.240036 722.483521,299.020508 
	C722.394836,299.482758 722.528809,299.987732 722.603516,301.194397 
	C724.899536,301.194397 727.181824,301.192932 729.464111,301.194580 
	C798.288025,301.244171 867.112000,301.293091 935.935913,301.345276 
	C943.864075,301.351288 943.795349,301.358643 942.656555,309.123199 
	C939.418213,331.202209 936.083679,353.269653 933.180725,375.393341 
	C932.538147,380.290619 930.817078,381.662720 925.994385,381.652985 
	C856.337036,381.512238 786.679199,381.615906 717.021973,381.453339 
	C711.622742,381.440735 709.569153,382.709595 708.409607,388.448608 
	C692.119995,469.074005 675.475098,549.627686 658.902588,630.195923 
	C658.604370,631.645752 658.135620,633.060547 657.609070,634.996704 
	C651.246765,634.996704 644.940552,634.988037 638.634399,634.998535 
	C626.636108,635.018372 614.636292,634.945679 602.640015,635.112915 
	C595.009521,635.219238 587.375732,635.557800 579.759644,636.045776 
	C575.424316,636.323608 574.277954,634.900696 575.128235,630.576477 
	C581.039185,600.514160 586.889343,570.438477 592.508179,540.320374 
	C607.410583,460.440399 622.184509,380.536377 637.014526,300.642883 
	C638.898682,290.492188 640.812561,280.346985 642.791016,269.778503 
z"/>
</svg>